<?xml version="1.0" encoding="utf-8"?>
<!-- Generator: Adobe Illustrator 23.0.6, SVG Export Plug-In . SVG Version: 6.00 Build 0)  -->
<svg version="1.1" id="Capa_1" xmlns="http://www.w3.org/2000/svg" xmlns:xlink="http://www.w3.org/1999/xlink" x="0px" y="0px"
	 viewBox="0 0 512 512" style="enable-background:new 0 0 512 512;" xml:space="preserve">
<style type="text/css">
	.st0{fill:#009B3A;}
	.st1{fill:#FEDF00;}
	.st2{fill:#002776;}
	.st3{fill:#FFFFFF;}
</style>
<rect x="0" y="76.7" class="st0" width="512" height="358.4"/>
<path class="st1" d="M43.5,255.9L256,391.6l212.5-135.7L256,120.2L43.5,255.9z"/>
<circle class="st2" cx="256" cy="255.9" r="89.6"/>
<g>
	<defs>
		<circle id="SVGID_1_" cx="256" cy="255.9" r="89.6"/>
	</defs>
	<clipPath id="SVGID_2_">
		<use xlink:href="#SVGID_1_"  style="overflow:visible;"/>
	</clipPath>
</g>
<path class="st2" d="M344.7,268.4c-0.7,4.9-1.8,9.6-3.2,14.2c-36.2-32.5-84.2-52.3-136.7-52.3c-12.1,0-24,1.1-35.5,3.1
	c1.2-4.7,2.8-9.3,4.8-13.7c10-1.4,20.3-2.2,30.8-2.2C258.1,217.5,306.9,236.6,344.7,268.4z"/>
<path class="st3" d="M344.7,268.4c-0.7,4.9-1.8,9.6-3.2,14.2c-36.2-32.5-84.2-52.3-136.7-52.3c-12.1,0-24,1.1-35.5,3.1
	c1.2-4.7,2.8-9.3,4.8-13.7c10-1.4,20.3-2.2,30.8-2.2C258.1,217.5,306.9,236.6,344.7,268.4z"/>
</svg>
