<svg xmlns="http://www.w3.org/2000/svg" viewBox="0 0 23.26 23.26"><defs><style>.cls-1{fill:#f9c14a;}.cls-1,.cls-2{isolation:isolate;}.cls-3{fill:#5f9c6b;}</style></defs><title>icon-acesso-informacao</title><g id="Layer_2" data-name="Layer 2"><g id="Layer_1-2" data-name="Layer 1"><path class="cls-1" d="M11.63,0A11.63,11.63,0,0,0,0,11.63a11.48,11.48,0,0,0,1.54,5.76L.05,21.91A1,1,0,0,0,1.34,23.2l4.53-1.48A11.63,11.63,0,1,0,11.63,0Z"/><g class="cls-2"><path class="cls-3" d="M11.52,8.58a2.05,2.05,0,1,0-2-2A2,2,0,0,0,11.52,8.58Zm0,1.12a2.05,2.05,0,0,0-2,2.05v4.64a2,2,0,0,0,4.1,0V11.75A2.05,2.05,0,0,0,11.52,9.7Z"/></g></g></g></svg>