<?xml version="1.0" encoding="UTF-8"?>
<svg id="Camada_1" data-name="Camada 1" xmlns="http://www.w3.org/2000/svg" viewBox="0 0 1340.77 156.75">
  <defs>
    <style>
      .cls-1 {
        fill: #1b1f3b;
      }
    </style>
  </defs>
  <g>
    <path class="cls-1" d="m10.01,108.99V38.59c0-2.09,1.21-3.3,3.3-3.3h23.98c16.61,0,25.41,9.57,25.41,22.66,0,10.45-5.83,19.25-16.5,21.67l15.29,29.37c1.1,2.09.11,3.3-1.54,3.3h-3.96c-2.09,0-2.64-.66-3.63-2.53l-15.29-29.26h-18.15v28.49c0,1.98-1.1,3.3-3.08,3.3h-2.75c-1.98,0-3.08-1.32-3.08-3.3Zm29.15-35.86c9.13,0,14.41-7.48,14.41-15.07s-5.28-15.07-14.41-15.07h-20.24v30.14h20.24Z"/>
    <path class="cls-1" d="m72.05,93.59c0-12.21,9.35-20.46,23.32-20.46,6.49,0,11.99,1.98,16.61,4.4v-4.84c0-9.02-6.05-15.62-15.07-15.62-5.17,0-11.22,1.87-16.61,6.38-1.76,1.32-3.08.66-4.18-.77l-.66-.88c-1.43-1.87-.66-3.74.88-4.84,7.7-6.05,13.97-7.59,21.01-7.59,14.52,0,22.99,8.91,22.99,25.08v34.21c0,2.31-.88,3.63-2.86,3.63h-2.2c-1.98,0-2.97-1.54-2.97-3.63v-4.62c-4.62,6.05-11.55,9.57-18.92,9.57-12.76,0-21.34-7.92-21.34-20.02Zm22.33,12.32c8.8,0,17.71-6.49,17.71-16.06v-3.96c-3.52-1.98-9.68-5.61-16.39-5.61-9.02,0-14.96,5.94-14.96,13.42,0,7.04,5.5,12.21,13.64,12.21Z"/>
    <path class="cls-1" d="m132.77,81.49c0-20.68,11.33-32.12,27.83-32.12,8.25,0,14.96,3.3,19.69,8.25v-22.88c0-1.87.99-3.08,2.75-3.41l2.64-.44c2.09-.44,3.3.66,3.3,2.75v75.46c0,1.98-1.1,3.19-2.97,3.19h-2.42c-1.98,0-2.97-1.21-2.97-3.19v-3.96c-4.84,5.17-11.77,8.47-20.02,8.47-16.5,0-27.83-11.44-27.83-32.12Zm28.82,24.31c10.45,0,19.58-8.14,19.58-24.31s-9.02-24.31-19.58-24.31c-12.32,0-19.91,8.14-19.91,24.31s7.59,24.31,19.91,24.31Z"/>
    <path class="cls-1" d="m211.64,27.26c3.41,0,6.16,2.75,6.16,6.16s-2.75,6.16-6.16,6.16-6.16-2.64-6.16-6.16,2.75-6.16,6.16-6.16Zm-4.4,81.84v-55.22c0-1.98,1.1-3.19,2.97-3.19h2.75c1.87,0,2.97,1.21,2.97,3.19v55.22c0,1.87-1.1,3.19-2.97,3.19h-2.75c-1.87,0-2.97-1.32-2.97-3.19Z"/>
    <path class="cls-1" d="m229.13,80.83c0-20.02,11.66-31.46,29.26-31.46s29.26,11.44,29.26,31.46c0,21.34-11.66,32.78-29.26,32.78s-29.26-11.44-29.26-32.78Zm29.26,24.97c11.99,0,20.46-7.81,20.46-24.97,0-15.84-8.47-23.65-20.46-23.65s-20.46,7.81-20.46,23.65c0,17.16,8.47,24.97,20.46,24.97Z"/>
    <path class="cls-1" d="m296.67,93.59c0-12.21,9.35-20.46,23.32-20.46,6.49,0,11.99,1.98,16.61,4.4v-4.84c0-9.02-6.05-15.62-15.07-15.62-5.17,0-11.22,1.87-16.61,6.38-1.76,1.32-3.08.66-4.18-.77l-.66-.88c-1.43-1.87-.66-3.74.88-4.84,7.7-6.05,13.97-7.59,21.01-7.59,14.52,0,22.99,8.91,22.99,25.08v34.21c0,2.31-.88,3.63-2.86,3.63h-2.2c-1.98,0-2.97-1.54-2.97-3.63v-4.62c-4.62,6.05-11.55,9.57-18.92,9.57-12.76,0-21.34-7.92-21.34-20.02Zm22.33,12.32c8.8,0,17.71-6.49,17.71-16.06v-3.96c-3.52-1.98-9.68-5.61-16.39-5.61-9.02,0-14.96,5.94-14.96,13.42,0,7.04,5.5,12.21,13.64,12.21Z"/>
    <path class="cls-1" d="m359.59,120.65c-1.43-1.76-1.54-3.63.55-5.17l.77-.55c1.32-.99,2.97-1.54,4.51.44,4.73,6.38,10.45,10.34,19.58,10.34,10.56,0,18.59-6.49,18.59-19.36v-8.47c-3.63,5.94-11.11,8.25-19.03,8.25-15.62,0-26.95-11.44-26.95-29.15s11.33-27.61,27.06-27.61c8.25,0,15.73,3.63,19.47,9.9v-5.06c0-2.2.99-3.52,2.86-3.52h2.2c1.87,0,2.97,1.32,2.97,3.52v51.48c0,19.25-12.98,27.5-27.28,27.5-10.78,0-18.7-4.07-25.3-12.54Zm25.63-22c11.22,0,18.81-8.14,18.81-21.67s-7.81-20.13-18.92-20.13-18.7,7.04-18.7,20.13,7.48,21.67,18.81,21.67Z"/>
    <path class="cls-1" d="m425.26,81.71c0-20.02,11.88-32.34,27.72-32.34,7.81,0,14.85,3.08,19.58,8.25,5.39,5.83,7.81,13.97,7.81,22.66,0,2.31-1.54,3.96-3.74,3.96h-42.46c.99,13.64,10.23,21.67,20.24,21.67,4.84,0,11.22-1.98,17.16-7.48,1.98-1.87,3.19-1.54,4.73,0l.88.88c1.76,1.76.88,3.63-.22,4.84-6.6,7.15-15.95,9.46-22.55,9.46-15.07,0-29.15-11.44-29.15-31.9Zm46.2-4.73c-.22-5.06-1.98-10.23-4.62-13.09-3.19-3.96-8.25-6.82-13.86-6.82-10.01,0-17.27,7.26-18.7,19.91h37.18Zm-31.79-41.03l12.43-7.81c1.65-.99,2.42-1.1,4.07,0l12.43,7.81c1.98,1.32,2.86,2.86,1.65,4.29l-.88,1.1c-1.1,1.32-2.2,1.54-4.18.33l-11.11-6.38-11,6.38c-2.09,1.21-3.08.99-4.18-.33l-.88-1.1c-1.21-1.54-.33-2.97,1.65-4.29Z"/>
    <path class="cls-1" d="m493.02,109.1v-55.22c0-1.98,1.1-3.19,2.97-3.19h2.2c1.87,0,2.97,1.21,2.97,3.19v3.96c3.85-5.28,10.12-8.47,18.26-8.47,13.86,0,22.44,9.46,22.44,22.88v36.85c0,1.87-.99,3.19-2.97,3.19h-2.75c-1.87,0-2.97-1.32-2.97-3.19v-36.08c0-9.68-5.94-15.95-15.29-15.95s-16.17,6.27-16.17,15.95v36.08c0,1.87-.99,3.19-2.97,3.19h-2.75c-1.87,0-2.97-1.32-2.97-3.19Z"/>
    <path class="cls-1" d="m554.28,80.72c0-19.91,12.32-31.35,29.26-31.35,6.71,0,14.52,1.76,21.34,9.24,1.1,1.21,2.09,3.19.22,4.84l-.99.88c-1.54,1.32-2.86,1.98-4.73,0-6.38-6.38-11.77-7.04-15.73-7.04-12.1,0-20.57,8.14-20.57,23.54,0,16.5,8.03,24.86,20.57,24.86,3.96,0,9.35-.66,15.73-7.04,1.87-1.98,3.08-1.43,4.73,0l.99.88c1.87,1.65.88,3.52-.22,4.84-6.82,7.48-14.63,9.24-21.34,9.24-16.94,0-29.26-11.44-29.26-32.89Z"/>
    <path class="cls-1" d="m622.48,27.26c3.41,0,6.16,2.75,6.16,6.16s-2.75,6.16-6.16,6.16-6.16-2.64-6.16-6.16,2.75-6.16,6.16-6.16Zm-4.4,81.84v-55.22c0-1.98,1.1-3.19,2.97-3.19h2.75c1.87,0,2.97,1.21,2.97,3.19v55.22c0,1.87-1.1,3.19-2.97,3.19h-2.75c-1.87,0-2.97-1.32-2.97-3.19Z"/>
    <path class="cls-1" d="m639.97,93.59c0-12.21,9.35-20.46,23.32-20.46,6.49,0,11.99,1.98,16.61,4.4v-4.84c0-9.02-6.05-15.62-15.07-15.62-5.17,0-11.22,1.87-16.61,6.38-1.76,1.32-3.08.66-4.18-.77l-.66-.88c-1.43-1.87-.66-3.74.88-4.84,7.7-6.05,13.97-7.59,21.01-7.59,14.52,0,22.99,8.91,22.99,25.08v34.21c0,2.31-.88,3.63-2.86,3.63h-2.2c-1.98,0-2.97-1.54-2.97-3.63v-4.62c-4.62,6.05-11.55,9.57-18.92,9.57-12.76,0-21.34-7.92-21.34-20.02Zm22.33,12.32c8.8,0,17.71-6.49,17.71-16.06v-3.96c-3.52-1.98-9.68-5.61-16.39-5.61-9.02,0-14.96,5.94-14.96,13.42,0,7.04,5.5,12.21,13.64,12.21Z"/>
  </g>
  <g>
    <path class="cls-1" d="m753.85,107.23l-26.18-30.69v30.14c0,3.63-1.98,5.61-5.61,5.61h-10.67c-3.63,0-5.61-1.98-5.61-5.61V42.11c0-5.39,3.63-7.37,7.92-7.37h1.32c4.18,0,6.93,1.98,10.01,5.61l26.18,36.19v-35.64c0-3.63,1.98-5.61,5.61-5.61h10.67c3.74,0,5.72,1.98,5.72,5.61v64.57c0,5.39-3.63,7.37-8.03,7.37h-1.32c-4.07,0-6.93-1.98-10.01-5.61Z"/>
    <path class="cls-1" d="m782.45,94.36c0-12.65,9.46-21.01,23.76-21.01,3.85,0,7.7.77,11.44,2.2v-1.65c0-4.84-3.08-9.35-8.69-9.35s-9.24,1.87-11.11,2.86c-2.64,1.32-5.39,1.1-7.04-2.42l-1.43-2.97c-1.87-3.85-.99-5.94,1.43-7.37,4.95-2.97,13.2-5.28,19.69-5.28,12.98,0,27.17,5.83,27.17,26.4v30.36c0,3.96-1.98,6.16-5.61,6.16h-5.06c-3.41,0-5.5-2.09-5.61-6.05-4.62,4.51-10.45,7.37-17.16,7.37-13.09,0-21.78-7.7-21.78-19.25Zm27.5,6.38c5.28,0,8.25-3.96,8.25-6.93v-6.71c-1.76-.77-5.06-1.87-8.25-1.87-4.4,0-7.37,3.85-7.37,7.7,0,4.95,2.97,7.81,7.37,7.81Z"/>
    <path class="cls-1" d="m846.03,80.83c0-20.02,12.87-31.46,30.14-31.46,10.01,0,17.05,4.29,22,9.68,1.43,1.65,2.64,4.18-.22,6.6l-6.38,5.61c-1.87,1.65-3.3,2.42-5.94-.22-1.98-1.98-5.39-3.19-8.47-3.19-5.72,0-9.79,4.95-9.79,12.98,0,9.35,4.07,14.3,9.79,14.3,3.08,0,6.49-1.43,8.47-3.41,2.64-2.64,4.29-1.76,5.94-.22l6.38,5.83c2.86,2.64,1.65,4.95.22,6.6-4.95,5.39-11.99,9.68-22,9.68-17.27,0-30.14-11.44-30.14-32.78Z"/>
    <path class="cls-1" d="m917.86,21.21c6.82,0,12.21,5.39,12.21,12.21s-5.39,11.99-12.21,11.99-11.99-5.28-11.99-11.99,5.28-12.21,11.99-12.21Zm-10.78,85.58v-50.6c0-3.52,1.98-5.5,5.5-5.5h10.67c3.52,0,5.5,1.98,5.5,5.5v50.6c0,3.52-1.98,5.5-5.5,5.5h-10.67c-3.52,0-5.5-1.98-5.5-5.5Z"/>
    <path class="cls-1" d="m937.44,80.83c0-20.02,12.98-31.46,31.02-31.46s31.02,11.44,31.02,31.46c0,21.34-12.98,32.89-31.02,32.89s-31.02-11.55-31.02-32.89Zm31.02,14.52c5.61,0,9.68-3.85,9.68-14.52,0-9.35-4.07-13.09-9.68-13.09s-9.68,3.74-9.68,13.09c0,10.67,4.07,14.52,9.68,14.52Z"/>
    <path class="cls-1" d="m1008.17,106.79v-50.6c0-3.52,1.98-5.5,5.5-5.5h6.71c3.52,0,5.5,1.98,5.5,5.5v1.87c3.52-5.06,8.91-8.69,16.83-8.69,13.31,0,22.99,9.35,22.99,24.2v33.22c0,3.52-1.98,5.5-5.61,5.5h-10.67c-3.52,0-5.5-1.98-5.5-5.5v-31.68c0-4.29-2.64-7.48-7.04-7.48s-7.04,3.19-7.04,7.48v31.68c0,3.52-1.98,5.5-5.5,5.5h-10.67c-3.52,0-5.5-1.98-5.5-5.5Z"/>
    <path class="cls-1" d="m1073.4,94.36c0-12.65,9.46-21.01,23.76-21.01,3.85,0,7.7.77,11.44,2.2v-1.65c0-4.84-3.08-9.35-8.69-9.35s-9.24,1.87-11.11,2.86c-2.64,1.32-5.39,1.1-7.04-2.42l-1.43-2.97c-1.87-3.85-.99-5.94,1.43-7.37,4.95-2.97,13.2-5.28,19.69-5.28,12.98,0,27.17,5.83,27.17,26.4v30.36c0,3.96-1.98,6.16-5.61,6.16h-5.06c-3.41,0-5.5-2.09-5.61-6.05-4.62,4.51-10.45,7.37-17.16,7.37-13.09,0-21.78-7.7-21.78-19.25Zm27.5,6.38c5.28,0,8.25-3.96,8.25-6.93v-6.71c-1.76-.77-5.06-1.87-8.25-1.87-4.4,0-7.37,3.85-7.37,7.7,0,4.95,2.97,7.81,7.37,7.81Z"/>
    <path class="cls-1" d="m1139.84,94.69v-55.66c0-3.63,1.98-4.95,5.5-5.61l10.67-1.87c3.52-.66,5.5,1.98,5.5,5.5v55.66c0,.99,0,1.98,1.21,1.98.33,0,2.31-.44,3.08-.55,1.87-.33,3.41.33,3.96,3.52l1.43,8.25c.55,3.41,0,4.29-2.2,5.39-3.85,1.98-7.15,2.42-10.45,2.42-12.43,0-18.7-6.38-18.7-19.03Z"/>
  </g>
  <path class="cls-1" d="m1184.02,78.37c0-43.28,34.97-78.37,78.37-78.37s78.37,35.09,78.37,78.37-35.09,78.37-78.37,78.37-78.37-35.09-78.37-78.37Zm29.59,2.69c20.59,9.24,37.78,25.26,48.54,45.15,3.16,5.61,10.53,7.13,15.56,3.16,19.3-15.32,33.1-37.55,37.67-62.82,1.06-5.61-.93-11.23-5.15-15.09-15.32-13.92-34.74-23.4-56.38-26.2-4.56-.7-9.47.58-13.22,3.51-13.69,9.94-24.8,23.05-32.17,38.25-2.57,5.26-.35,11.58,5.15,14.04h0Z"/>
</svg>