<?xml version="1.0" encoding="UTF-8" standalone="no" ?>
<!DOCTYPE svg PUBLIC "-//W3C//DTD SVG 1.1//EN" "http://www.w3.org/Graphics/SVG/1.1/DTD/svg11.dtd">
<svg xmlns="http://www.w3.org/2000/svg" xmlns:xlink="http://www.w3.org/1999/xlink" version="1.1" width="300" height="54" viewBox="0 0 300 54" xml:space="preserve">
<desc>Created with Fabric.js 3.6.6</desc>
<defs>
</defs>
<g transform="matrix(1.1 0 0 1.1 149.97 26.84)"  >
<g style=""   >
		<g transform="matrix(2.2 0 0 2.2 -128.7 2.43)" id="Camada_1"  >
<path style="stroke: none; stroke-width: 1; stroke-dasharray: none; stroke-linecap: butt; stroke-dashoffset: 0; stroke-linejoin: miter; stroke-miterlimit: 4; fill: rgb(12,26,61); fill-rule: nonzero; opacity: 1;"  transform=" translate(-9.65, -23.6)" d="M 6.3 25.4 c 0 -1.8 1.3 -2.9 3.3 -2.9 c 1 0 1.9 0.3 2.6 0.7 v -1 c 0 -1.4 -1 -2.5 -2.4 -2.5 c -0.9 0 -1.8 0.4 -2.6 1.1 c -0.2 0.2 -0.3 0.1 -0.5 0 l -0.1 -0.1 c -0.2 -0.2 -0.1 -0.4 0.1 -0.5 c 1 -0.9 2 -1.2 3.1 -1.2 c 2.1 0 3.2 1.3 3.2 3.5 v 5.2 c 0 0.3 -0.1 0.4 -0.3 0.4 h -0.2 c -0.2 0 -0.3 -0.2 -0.3 -0.4 v -1 c -0.7 1 -1.7 1.5 -2.9 1.5 C 7.5 28.3 6.3 27.2 6.3 25.4 z M 9.4 27.5 c 1.4 0 2.8 -1 2.8 -2.6 v -0.7 c -0.6 -0.3 -1.6 -0.9 -2.6 -0.9 c -1.5 0 -2.4 0.9 -2.4 2.1 C 7.2 26.6 8.1 27.5 9.4 27.5 z" stroke-linecap="round" />
</g>
		<g transform="matrix(2.2 0 0 2.2 -108.57 5.61)" id="Camada_1"  >
<path style="stroke: none; stroke-width: 1; stroke-dasharray: none; stroke-linecap: butt; stroke-dashoffset: 0; stroke-linejoin: miter; stroke-miterlimit: 4; fill: rgb(12,26,61); fill-rule: nonzero; opacity: 1;"  transform=" translate(-18.8, -25.05)" d="M 15.3 29.2 c -0.1 -0.2 -0.2 -0.4 0.1 -0.6 l 0 0 c 0.1 -0.1 0.3 -0.2 0.5 0.1 c 0.7 1 1.6 1.6 3 1.6 c 1.7 0 2.9 -1.1 2.9 -3.1 v -1.6 c -0.5 1 -1.7 1.4 -3 1.4 c -2.2 0 -3.8 -1.5 -3.8 -4 c 0 -2.6 1.6 -4 3.8 -4 c 1.3 0 2.5 0.6 3 1.7 v -1.1 c 0 -0.2 0.1 -0.4 0.3 -0.4 h 0.2 c 0.2 0 0.3 0.1 0.3 0.4 v 7.6 c 0 2.7 -1.7 3.9 -3.8 3.9 C 17.4 31.1 16.2 30.4 15.3 29.2 z M 18.9 26.2 c 1.8 0 3 -1.2 3 -3.2 c 0 -2.2 -1.2 -3.2 -3 -3.2 c -1.8 0 -3 1 -3 3.2 C 15.9 25 17.1 26.2 18.9 26.2 z" stroke-linecap="round" />
</g>
		<g transform="matrix(2.2 0 0 2.2 -87.01 -0.96)" id="Camada_1"  >
<path style="stroke: none; stroke-width: 1; stroke-dasharray: none; stroke-linecap: butt; stroke-dashoffset: 0; stroke-linejoin: miter; stroke-miterlimit: 4; fill: rgb(12,26,61); fill-rule: nonzero; opacity: 1;"  transform=" translate(-28.6, -22.06)" d="M 24.7 23.7 c 0 -2.9 1.7 -4.7 4 -4.7 c 1.2 0 2.3 0.6 2.9 1.4 c 0.7 0.8 0.9 1.9 0.9 3 c 0 0.3 -0.2 0.5 -0.4 0.5 h -6.5 c 0.1 2.2 1.6 3.5 3.2 3.5 c 0.9 0 1.9 -0.5 2.8 -1.4 c 0.2 -0.2 0.4 -0.1 0.5 0 l 0.1 0.1 c 0.2 0.2 0.1 0.4 0 0.6 c -0.9 1.1 -2.2 1.5 -3.3 1.5 C 26.7 28.3 24.7 26.6 24.7 23.7 z M 31.6 23.1 c 0 -0.9 -0.2 -1.5 -0.6 -2 c -0.5 -0.8 -1.4 -1.3 -2.4 -1.3 c -1.7 0 -2.9 1.1 -3.1 3.4 H 31.6 z M 26.8 17.2 l 1.8 -1.2 c 0.2 -0.1 0.3 -0.1 0.5 0 l 1.8 1.2 c 0.2 0.1 0.3 0.3 0.2 0.5 l -0.1 0.1 c -0.1 0.1 -0.3 0.2 -0.5 0 l -1.6 -1 l -1.7 1 c -0.2 0.1 -0.4 0.1 -0.5 0 l -0.1 -0.1 C 26.5 17.5 26.6 17.4 26.8 17.2 z" stroke-linecap="round" />
</g>
		<g transform="matrix(2.2 0 0 2.2 -66.55 2.42)" id="Camada_1"  >
<path style="stroke: none; stroke-width: 1; stroke-dasharray: none; stroke-linecap: butt; stroke-dashoffset: 0; stroke-linejoin: miter; stroke-miterlimit: 4; fill: rgb(12,26,61); fill-rule: nonzero; opacity: 1;"  transform=" translate(-37.9, -23.6)" d="M 34.5 27.7 v -8.2 c 0 -0.2 0.1 -0.3 0.3 -0.3 H 35 c 0.2 0 0.3 0.1 0.3 0.3 v 0.9 c 0.6 -0.9 1.5 -1.4 2.8 -1.4 c 2 0 3.2 1.3 3.2 3.2 v 5.5 c 0 0.2 -0.1 0.4 -0.3 0.4 h -0.2 c -0.2 0 -0.3 -0.1 -0.3 -0.4 v -5.4 c 0 -1.5 -1 -2.5 -2.5 -2.5 c -1.5 0 -2.6 1.1 -2.6 2.6 v 5.4 c 0 0.2 -0.1 0.4 -0.3 0.4 h -0.2 C 34.6 28.1 34.5 27.9 34.5 27.7 z" stroke-linecap="round" />
</g>
		<g transform="matrix(2.2 0 0 2.2 -46.4 2.53)" id="Camada_1"  >
<path style="stroke: none; stroke-width: 1; stroke-dasharray: none; stroke-linecap: butt; stroke-dashoffset: 0; stroke-linejoin: miter; stroke-miterlimit: 4; fill: rgb(12,26,61); fill-rule: nonzero; opacity: 1;"  transform=" translate(-47.06, -23.65)" d="M 43.3 23.5 c 0 -2.9 1.8 -4.5 4.2 -4.5 c 1.1 0 2.2 0.4 3.2 1.5 c 0.1 0.1 0.2 0.4 0 0.5 l -0.1 0.1 c -0.2 0.1 -0.3 0.2 -0.5 0 c -0.9 -1 -1.7 -1.3 -2.6 -1.3 c -1.9 0 -3.3 1.3 -3.3 3.8 c 0 2.6 1.3 3.9 3.3 3.9 c 0.8 0 1.7 -0.3 2.6 -1.3 c 0.2 -0.2 0.4 -0.2 0.5 0 l 0.1 0.1 c 0.2 0.2 0.1 0.4 0 0.5 c -0.9 1.1 -2.1 1.5 -3.2 1.5 C 45 28.3 43.3 26.6 43.3 23.5 z" stroke-linecap="round" />
</g>
		<g transform="matrix(2.2 0 0 2.2 -33.33 -0.99)" id="Camada_1"  >
<path style="stroke: none; stroke-width: 1; stroke-dasharray: none; stroke-linecap: butt; stroke-dashoffset: 0; stroke-linejoin: miter; stroke-miterlimit: 4; fill: rgb(12,26,61); fill-rule: nonzero; opacity: 1;"  transform=" translate(-53, -22.05)" d="M 53 16 c 0.4 0 0.7 0.3 0.7 0.7 c 0 0.4 -0.3 0.7 -0.7 0.7 c -0.4 0 -0.7 -0.3 -0.7 -0.7 C 52.3 16.3 52.7 16 53 16 z M 52.6 27.7 v -8.2 c 0 -0.2 0.1 -0.3 0.3 -0.3 h 0.2 c 0.2 0 0.3 0.1 0.3 0.3 v 8.2 c 0 0.2 -0.1 0.4 -0.3 0.4 h -0.2 C 52.7 28.1 52.6 27.9 52.6 27.7 z" stroke-linecap="round" />
</g>
		<g transform="matrix(2.2 0 0 2.2 -20.46 2.43)" id="Camada_1"  >
<path style="stroke: none; stroke-width: 1; stroke-dasharray: none; stroke-linecap: butt; stroke-dashoffset: 0; stroke-linejoin: miter; stroke-miterlimit: 4; fill: rgb(12,26,61); fill-rule: nonzero; opacity: 1;"  transform=" translate(-58.85, -23.6)" d="M 55.5 25.4 c 0 -1.8 1.3 -2.9 3.3 -2.9 c 1 0 1.9 0.3 2.6 0.7 v -1 c 0 -1.4 -1 -2.5 -2.4 -2.5 c -0.9 0 -1.8 0.4 -2.6 1.1 c -0.2 0.2 -0.3 0.1 -0.5 0 l -0.1 -0.1 c -0.2 -0.2 -0.1 -0.4 0.1 -0.5 c 1 -0.9 2 -1.2 3.1 -1.2 c 2.1 0 3.2 1.3 3.2 3.5 v 5.2 c 0 0.3 -0.1 0.4 -0.3 0.4 h -0.2 c -0.2 0 -0.3 -0.2 -0.3 -0.4 v -1 c -0.7 1 -1.7 1.5 -2.9 1.5 C 56.7 28.3 55.5 27.2 55.5 25.4 z M 58.6 27.5 c 1.4 0 2.8 -1 2.8 -2.6 v -0.7 c -0.6 -0.3 -1.6 -0.9 -2.6 -0.9 c -1.5 0 -2.4 0.9 -2.4 2.1 C 56.4 26.6 57.3 27.5 58.6 27.5 z" stroke-linecap="round" />
</g>
		<g transform="matrix(2.2 0 0 2.2 1.65 0.22)" id="Camada_1"  >
<path style="stroke: none; stroke-width: 1; stroke-dasharray: none; stroke-linecap: butt; stroke-dashoffset: 0; stroke-linejoin: miter; stroke-miterlimit: 4; fill: rgb(12,26,61); fill-rule: nonzero; opacity: 1;"  transform=" translate(-68.9, -22.6)" d="M 64.6 27.3 v -9.6 c 0 -0.5 0.3 -0.7 0.7 -0.7 h 3.8 c 2.1 0 3.5 1.3 3.5 3 c 0 1 -0.5 1.9 -1.3 2.3 c 1 0.4 1.9 1.4 1.9 2.8 c 0 1.8 -1.5 3.1 -3.8 3.1 h -4.1 C 64.9 28.1 64.6 27.8 64.6 27.3 z M 69 26.1 c 0.9 0 1.5 -0.6 1.5 -1.4 c 0 -0.7 -0.6 -1.4 -1.4 -1.4 h -1.6 l 0 2.7 H 69 z M 68.7 21.6 c 0.8 0 1.2 -0.6 1.2 -1.3 c 0 -0.7 -0.5 -1.3 -1.2 -1.3 h -1.3 l 0 2.6 H 68.7 z" stroke-linecap="round" />
</g>
		<g transform="matrix(2.2 0 0 2.2 20.71 2.33)" id="Camada_1"  >
<path style="stroke: none; stroke-width: 1; stroke-dasharray: none; stroke-linecap: butt; stroke-dashoffset: 0; stroke-linejoin: miter; stroke-miterlimit: 4; fill: rgb(12,26,61); fill-rule: nonzero; opacity: 1;"  transform=" translate(-77.56, -23.56)" d="M 74.6 27.4 v -7.4 c 0 -0.5 0.3 -0.7 0.7 -0.7 h 0.8 c 0.5 0 0.7 0.3 0.7 0.7 v 0.3 c 0.6 -0.8 1.3 -1.2 2.2 -1.2 c 0.4 0 0.8 0.1 1.1 0.2 c 0.3 0.1 0.5 0.2 0.4 0.7 L 80.3 21 c -0.1 0.4 -0.4 0.5 -0.7 0.4 c -0.3 -0.1 -0.6 -0.2 -0.8 -0.2 c -0.9 0 -1.4 0.6 -1.4 1.6 v 4.5 c 0 0.5 -0.3 0.7 -0.7 0.7 h -1.3 C 74.8 28.1 74.6 27.8 74.6 27.4 z" stroke-linecap="round" />
</g>
		<g transform="matrix(2.2 0 0 2.2 36.19 2.75)" id="Camada_1"  >
<path style="stroke: none; stroke-width: 1; stroke-dasharray: none; stroke-linecap: butt; stroke-dashoffset: 0; stroke-linejoin: miter; stroke-miterlimit: 4; fill: rgb(12,26,61); fill-rule: nonzero; opacity: 1;"  transform=" translate(-84.6, -23.75)" d="M 80.7 25.5 c 0 -1.8 1.4 -3 3.4 -3 c 0.6 0 1.2 0.2 1.8 0.4 v -0.3 c 0 -0.8 -0.5 -1.5 -1.4 -1.5 c -0.8 0 -1.4 0.3 -1.8 0.5 c -0.4 0.2 -0.7 0.2 -0.9 -0.3 l -0.2 -0.4 c -0.3 -0.5 -0.1 -0.8 0.2 -1 c 0.8 -0.5 1.9 -0.8 2.9 -0.8 c 1.9 0 3.8 0.9 3.8 3.8 v 4.5 c 0 0.5 -0.3 0.8 -0.7 0.8 h -0.7 c -0.5 0 -0.7 -0.3 -0.7 -0.8 v -0.1 c -0.7 0.7 -1.6 1.1 -2.5 1.1 C 82 28.3 80.7 27.2 80.7 25.5 z M 84.6 26.5 c 0.8 0 1.5 -0.6 1.5 -1.2 v -0.9 c -0.3 -0.2 -0.9 -0.4 -1.4 -0.4 c -0.8 0 -1.3 0.4 -1.3 1.2 C 83.3 26.1 83.8 26.5 84.6 26.5 z" stroke-linecap="round" />
</g>
		<g transform="matrix(2.2 0 0 2.2 55.31 2.13)" id="Camada_1"  >
<path style="stroke: none; stroke-width: 1; stroke-dasharray: none; stroke-linecap: butt; stroke-dashoffset: 0; stroke-linejoin: miter; stroke-miterlimit: 4; fill: rgb(12,26,61); fill-rule: nonzero; opacity: 1;"  transform=" translate(-93.29, -23.47)" d="M 90.1 27 c -0.4 -0.3 -0.4 -0.6 -0.1 -1.1 l 0.4 -0.5 c 0.4 -0.4 0.7 -0.3 1.1 -0.1 c 0.5 0.4 1.2 0.8 2 0.8 c 0.5 0 0.7 -0.4 0.7 -0.7 c 0 -0.4 -0.5 -0.8 -1 -1 c -1.4 -0.5 -3 -0.9 -3 -2.8 c 0 -1.7 1.3 -2.8 3.3 -2.8 c 1.1 0 2.4 0.4 2.9 1 c 0.4 0.3 0.4 0.6 0 1.1 l -0.3 0.4 c -0.3 0.4 -0.7 0.4 -1 0.1 c -0.4 -0.4 -0.9 -0.6 -1.5 -0.6 c -0.5 0 -0.8 0.4 -0.8 0.7 c 0 0.5 0.7 0.7 1.7 1.1 c 1.3 0.6 2.3 1.2 2.3 2.7 c 0 1.8 -1.4 2.8 -3.4 2.8 C 92 28.3 90.7 27.7 90.1 27 z" stroke-linecap="round" />
</g>
		<g transform="matrix(2.2 0 0 2.2 69.19 -1.98)" id="Camada_1"  >
<path style="stroke: none; stroke-width: 1; stroke-dasharray: none; stroke-linecap: butt; stroke-dashoffset: 0; stroke-linejoin: miter; stroke-miterlimit: 4; fill: rgb(12,26,61); fill-rule: nonzero; opacity: 1;"  transform=" translate(-99.6, -21.6)" d="M 99.6 15.1 c 0.9 0 1.6 0.7 1.6 1.6 c 0 0.9 -0.7 1.6 -1.6 1.6 c -0.9 0 -1.6 -0.7 -1.6 -1.6 C 98 15.8 98.7 15.1 99.6 15.1 z M 98.2 27.4 v -7.4 c 0 -0.5 0.3 -0.7 0.7 -0.7 h 1.3 c 0.5 0 0.7 0.3 0.7 0.7 v 7.4 c 0 0.5 -0.3 0.7 -0.7 0.7 h -1.3 C 98.5 28.1 98.2 27.8 98.2 27.4 z" stroke-linecap="round" />
</g>
		<g transform="matrix(2.2 0 0 2.2 80.78 -0.34)" id="Camada_1"  >
<path style="stroke: none; stroke-width: 1; stroke-dasharray: none; stroke-linecap: butt; stroke-dashoffset: 0; stroke-linejoin: miter; stroke-miterlimit: 4; fill: rgb(12,26,61); fill-rule: nonzero; opacity: 1;"  transform=" translate(-104.87, -22.35)" d="M 102.8 25.8 v -8.4 c 0 -0.5 0.3 -0.6 0.7 -0.7 l 1.3 -0.2 c 0.5 -0.1 0.7 0.3 0.7 0.7 v 8.4 c 0 0.2 0 0.3 0.2 0.3 c 0.1 0 0.3 0 0.4 -0.1 c 0.3 0 0.5 0 0.6 0.4 l 0.2 1 c 0.1 0.4 0 0.6 -0.3 0.7 c -0.5 0.3 -1 0.3 -1.4 0.3 C 103.7 28.3 102.8 27.5 102.8 25.8 z" stroke-linecap="round" />
</g>
		<g transform="matrix(2.2 0 0 2.2 112.53 0)" id="Camada_1"  >
<path style="stroke: none; stroke-width: 1; stroke-dasharray: none; stroke-linecap: butt; stroke-dashoffset: 0; stroke-linejoin: miter; stroke-miterlimit: 4; fill: rgb(12,26,61); fill-rule: nonzero; opacity: 1;"  transform=" translate(-119.3, -22.5)" d="M 108.6 22.5 c 0 -5.9 4.8 -10.7 10.7 -10.7 c 5.9 0 10.7 4.8 10.7 10.7 c 0 5.9 -4.8 10.7 -10.7 10.7 C 113.4 33.2 108.6 28.4 108.6 22.5 z M 112.7 22.9 c 2.8 1.3 5.1 3.4 6.6 6.1 c 0.4 0.8 1.4 1 2.1 0.4 c 2.6 -2.1 4.5 -5.1 5.1 -8.5 c 0.1 -0.8 -0.1 -1.5 -0.7 -2.1 c -2.1 -1.9 -4.7 -3.2 -7.7 -3.6 c -0.6 -0.1 -1.3 0.1 -1.8 0.5 c -1.9 1.4 -3.4 3.1 -4.4 5.2 C 111.6 21.7 111.9 22.6 112.7 22.9 z" stroke-linecap="round" />
</g>
</g>
</g>
</svg>