<?xml version="1.0" encoding="utf-8"?>
<!-- Generator: Adobe Illustrator 25.0.0, SVG Export Plug-In . SVG Version: 6.00 Build 0)  -->
<svg version="1.1" id="Layer_1" xmlns="http://www.w3.org/2000/svg" xmlns:xlink="http://www.w3.org/1999/xlink" x="0px" y="0px"
	 viewBox="0 0 374.95 318.04" style="enable-background:new 0 0 374.95 318.04;" xml:space="preserve">
<style type="text/css">
	.st0{fill:#158342;}
	.st1{fill:#FFD10F;}
	.st2{fill:#FFFFFF;}
</style>
<symbol  id="Pipa" viewBox="-163.42 -168.66 326.83 337.32">
	<path class="st0" d="M8.28-168.6c-0.04-0.02-0.06-0.04-0.08-0.06C8.84-58.82-62,13.06-163.42,50.17
		c19.06,45.08,56.53,83.13,107.04,118.3c0,0,0,0,0.02,0c0.02,0,0.02,0,0.02,0C-15.26,111.3,47.67-65.16,8.28-168.6z"/>
	<path class="st1" d="M163.42,57.89C148.56,0.03,73-122.64,8.28-168.6C44.91-68.48-13.25,111.3-56.34,168.47
		C44.43,171.68,120.46,134.7,163.42,57.89z"/>
</symbol>
<g>
	<g>
		<path class="st2" d="M2.47,186.66v-49.05h36.93v9.6H13.12v9.95h23.12v9.6H13.12v10.3h26.62v9.6H2.47z"/>
		<path class="st2" d="M51.73,186.66v-49.05h10.79v39.31h24.45v9.74H51.73z"/>
		<path class="st2" d="M97.41,186.66v-49.05h36.93v9.6h-26.28v9.95h23.13v9.6h-23.13v10.3h26.63v9.6H97.41z"/>
		<path class="st2" d="M147.16,186.66v-49.05h10.79v49.05H147.16z"/>
		<path class="st2" d="M181.74,183.58c-2.36-1.49-4.38-3.33-6.06-5.5c-1.68-2.17-2.99-4.6-3.92-7.29c-0.94-2.69-1.4-5.55-1.4-8.58
			c0-3.5,0.63-6.8,1.89-9.88c1.26-3.08,3.01-5.78,5.25-8.09c2.24-2.31,4.93-4.13,8.06-5.46c3.13-1.33,6.59-2,10.37-2
			c2.29,0,4.38,0.19,6.27,0.56c1.89,0.37,3.61,0.89,5.15,1.54c1.54,0.65,2.96,1.45,4.27,2.38c1.31,0.93,2.52,1.96,3.64,3.08
			l-6.87,7.92c-1.92-1.73-3.87-3.08-5.85-4.06c-1.99-0.98-4.22-1.47-6.69-1.47c-2.05,0-3.96,0.4-5.71,1.19
			c-1.75,0.8-3.26,1.89-4.52,3.29c-1.26,1.4-2.24,3.04-2.94,4.9c-0.7,1.87-1.05,3.86-1.05,5.96c0,2.1,0.35,4.1,1.05,5.99
			c0.7,1.89,1.67,3.54,2.91,4.94c1.24,1.4,2.73,2.51,4.48,3.33c1.75,0.82,3.68,1.22,5.78,1.22c2.8,0,5.17-0.51,7.11-1.54
			c1.94-1.03,3.87-2.43,5.78-4.2l6.87,6.94c-1.17,1.26-2.38,2.41-3.64,3.44c-1.26,1.03-2.63,1.92-4.1,2.66
			c-1.47,0.75-3.07,1.34-4.8,1.79c-1.73,0.44-3.64,0.71-5.75,0.8l-4.55,11.35l-8.9-3.71l5.61-8.27
			C186.69,186.15,184.1,185.08,181.74,183.58z"/>
		<path class="st2" d="M274.56,171.98c-1.31,3.06-3.12,5.75-5.43,8.06c-2.31,2.31-5.07,4.13-8.27,5.47c-3.2,1.33-6.69,2-10.48,2
			c-3.78,0-7.26-0.67-10.44-2c-3.18-1.33-5.92-3.13-8.23-5.4c-2.31-2.26-4.11-4.93-5.4-7.99c-1.28-3.06-1.93-6.34-1.93-9.84v-0.14
			c0-3.5,0.65-6.79,1.96-9.85c1.31-3.06,3.12-5.75,5.43-8.06c2.31-2.31,5.07-4.13,8.27-5.46c3.2-1.33,6.69-2,10.47-2
			c3.79,0,7.26,0.67,10.44,2c3.18,1.33,5.92,3.13,8.23,5.39c2.31,2.27,4.11,4.93,5.39,7.99c1.29,3.06,1.93,6.34,1.93,9.85v0.14
			C276.52,165.64,275.87,168.92,274.56,171.98z M265.24,162.14c0-2.1-0.36-4.09-1.09-5.96c-0.72-1.87-1.75-3.5-3.08-4.91
			c-1.33-1.4-2.91-2.51-4.73-3.33s-3.81-1.23-5.96-1.23c-2.2,0-4.19,0.4-5.99,1.19c-1.8,0.8-3.34,1.89-4.62,3.29
			c-1.29,1.4-2.29,3.03-3.01,4.87c-0.72,1.85-1.08,3.82-1.08,5.92v0.14c0,2.1,0.36,4.09,1.08,5.96c0.72,1.87,1.75,3.5,3.08,4.91
			c1.33,1.4,2.9,2.51,4.69,3.33c1.8,0.82,3.8,1.22,5.99,1.22c2.15,0,4.13-0.39,5.96-1.19c1.82-0.79,3.38-1.89,4.66-3.29
			c1.29-1.4,2.29-3.02,3.01-4.87c0.72-1.85,1.09-3.82,1.09-5.92V162.14z M261.77,131.13c-1.28,1.75-3.14,2.63-5.57,2.63
			c-1.07,0-2.11-0.14-3.12-0.42c-1.01-0.28-1.95-0.6-2.84-0.95c-0.89-0.35-1.72-0.67-2.49-0.95c-0.77-0.28-1.46-0.42-2.07-0.42
			c-1.07,0-1.88,0.29-2.42,0.88c-0.54,0.59-1.06,1.44-1.58,2.56l-5.68-1.75c0.42-1.45,0.88-2.77,1.37-3.96
			c0.49-1.19,1.08-2.21,1.75-3.05c0.68-0.84,1.47-1.49,2.38-1.96c0.91-0.47,1.97-0.7,3.19-0.7c1.07,0,2.11,0.14,3.12,0.42
			c1,0.28,1.95,0.6,2.84,0.95c0.89,0.35,1.71,0.67,2.45,0.95c0.75,0.28,1.45,0.42,2.1,0.42c1.07,0,1.88-0.29,2.42-0.88
			c0.54-0.58,1.06-1.44,1.57-2.56l5.68,1.75C264.09,127.03,263.05,129.38,261.77,131.13z"/>
		<path class="st2" d="M288.43,186.66v-49.05h36.93v9.6h-26.28v9.95h23.12v9.6h-23.12v10.3h26.63v9.6H288.43z"/>
		<path class="st2" d="M371.83,178.64c-0.88,1.89-2.11,3.48-3.69,4.76c-1.58,1.29-3.46,2.27-5.65,2.94
			c-2.19,0.68-4.61,1.02-7.28,1.02c-3.74,0-7.4-0.64-11-1.93c-3.6-1.29-6.87-3.26-9.81-5.92l6.38-7.64c2.24,1.82,4.54,3.27,6.9,4.34
			c2.36,1.08,4.94,1.61,7.74,1.61c2.24,0,3.98-0.41,5.22-1.22c1.24-0.82,1.86-1.95,1.86-3.4v-0.14c0-0.7-0.13-1.32-0.39-1.86
			c-0.26-0.54-0.75-1.04-1.48-1.51c-0.72-0.47-1.73-0.93-3.02-1.4c-1.29-0.47-2.96-0.96-5.03-1.47c-2.48-0.61-4.73-1.28-6.74-2.03
			c-2.01-0.75-3.72-1.67-5.13-2.77c-1.4-1.1-2.49-2.46-3.27-4.1c-0.77-1.63-1.16-3.67-1.16-6.1v-0.14c0-2.24,0.41-4.26,1.25-6.06
			c0.84-1.8,2.01-3.35,3.52-4.66c1.51-1.31,3.31-2.31,5.4-3.01c2.09-0.7,4.4-1.05,6.92-1.05c3.6,0,6.9,0.54,9.92,1.61
			c3.01,1.07,5.78,2.62,8.3,4.62l-5.61,8.13c-2.2-1.5-4.35-2.67-6.45-3.54c-2.1-0.86-4.2-1.3-6.31-1.3c-2.1,0-3.68,0.41-4.73,1.23
			c-1.05,0.82-1.58,1.83-1.58,3.05v0.14c0,0.8,0.15,1.48,0.46,2.07c0.3,0.58,0.85,1.11,1.65,1.58c0.79,0.47,1.88,0.91,3.27,1.33
			c1.38,0.42,3.13,0.91,5.23,1.47c2.48,0.65,4.7,1.39,6.64,2.21c1.94,0.82,3.58,1.8,4.92,2.94c1.33,1.15,2.34,2.49,3.02,4.03
			c0.68,1.54,1.02,3.39,1.02,5.54v0.14C373.15,174.59,372.71,176.75,371.83,178.64z"/>
	</g>
	<g>
		<g>
			<path class="st2" d="M169.65,231.88c-8.71-9.97-19.9-15.03-33.23-15.03c-13.33,0-24.51,5.06-33.25,15.06
				c-8.2,9.57-12.36,21.38-12.36,35.08c0,13.79,3.92,25.63,11.65,35.17c8.48,10.54,19.91,15.88,33.96,15.88
				c14.59,0,26.29-5.71,34.77-16.97c7.2-9.53,10.85-21,10.85-34.08C182.04,253.29,177.88,241.48,169.65,231.88z M153.35,285.13
				c-4.12,4.59-9.66,6.82-16.93,6.82c-7.26,0-12.8-2.23-16.96-6.85c-4.16-4.53-6.18-10.45-6.18-18.11c0-7.98,2.07-14.41,6.36-19.66
				c4.31-5.38,9.8-8,16.78-8c6.99,0,12.48,2.62,16.81,8.03c4.26,5.22,6.34,11.65,6.34,19.63
				C159.57,274.65,157.54,280.57,153.35,285.13z"/>
			<path class="st2" d="M29.89,293.76h49.23v22.47H0.91v-18.47c0-8.5,5.36-15.91,15.93-22.01l0.3-0.16l25.88-12.13
				c7.47-3.69,11.63-7.58,11.63-10.94c0-6.14-1.9-13.19-16.72-13.19c-5.06,0-9.13,1.44-12.44,4.41c-2.36,2.16-2.9,3.25-3.01,3.52
				v3.83H0v-4c0-6.01,3.3-12.13,10.09-18.7c7.84-7.65,17.21-11.54,27.84-11.54c11.8,0,21.35,3.12,28.37,9.27
				c7.19,6.29,10.83,15.17,10.83,26.4c0,9.8-5.15,18.31-15.31,25.28c-3.92,2.7-12.39,6.93-25.88,12.93
				C33.39,291.87,31.42,292.88,29.89,293.76z"/>
		</g>
		<g>
			<path class="st2" d="M222.72,293.76h49.22v22.47h-78.21v-18.47c0-8.5,5.36-15.9,15.93-22.01l0.31-0.16l25.87-12.13
				c7.48-3.69,11.63-7.59,11.63-10.94c0-6.14-1.9-13.19-16.72-13.19c-5.06,0-9.13,1.44-12.44,4.41c-2.35,2.16-2.9,3.25-3.01,3.52
				v3.83h-22.47v-4c0-6.01,3.29-12.13,10.08-18.7c7.84-7.65,17.22-11.54,27.84-11.54c11.81,0,21.35,3.12,28.38,9.27
				c7.18,6.29,10.82,15.17,10.82,26.4c0,9.8-5.15,18.31-15.31,25.28c-3.91,2.7-12.38,6.93-25.88,12.93
				C226.21,291.87,224.24,292.88,222.72,293.76z"/>
			<path class="st2" d="M362.48,231.88c-8.72-9.97-19.91-15.03-33.24-15.03c-13.33,0-24.51,5.06-33.25,15.06
				c-8.2,9.57-12.36,21.38-12.36,35.08c0,13.79,3.92,25.63,11.65,35.17c8.48,10.54,19.91,15.88,33.96,15.88
				c14.6,0,26.29-5.71,34.77-16.97c7.2-9.53,10.85-21,10.85-34.08C374.86,253.29,370.7,241.48,362.48,231.88z M346.18,285.13
				c-4.13,4.59-9.67,6.82-16.94,6.82c-7.26,0-12.8-2.23-16.95-6.85c-4.16-4.53-6.19-10.45-6.19-18.11c0-7.99,2.08-14.41,6.37-19.66
				c4.3-5.38,9.79-8,16.77-8c6.99,0,12.48,2.62,16.81,8.03c4.27,5.22,6.34,11.65,6.34,19.63
				C352.39,274.65,350.37,280.57,346.18,285.13z"/>
		</g>
	</g>
	<rect x="1.95" y="197.26" class="st2" width="174" height="3"/>
	<rect x="1.95" y="111.26" class="st2" width="177" height="3"/>
	<rect x="207.95" y="197.26" class="st2" width="167" height="3"/>
	<rect x="207.95" y="111.26" class="st2" width="167" height="3"/>
	
		<use xlink:href="#Pipa"  width="326.83" height="337.32" id="XMLID_29_" x="-163.42" y="-168.66" transform="matrix(0.3464 0 0 -0.3464 187.9485 58.4287)" style="overflow:visible;"/>
</g>
</svg>
