<?xml version="1.0" encoding="utf-8"?>
<!-- Generator: Adobe Illustrator 27.7.0, SVG Export Plug-In . SVG Version: 6.00 Build 0)  -->
<svg version="1.1" id="Layer_1" xmlns="http://www.w3.org/2000/svg" xmlns:xlink="http://www.w3.org/1999/xlink" x="0px" y="0px"
	 viewBox="0 0 313 56" style="enable-background:new 0 0 313 56;" xml:space="preserve">
<style type="text/css">
	.st0{fill:#D7EB2F;}
	.st1{fill:#0C1A3D;}
</style>
<g>
	<path class="st1" d="M5.63,41.22V20.38c0-0.52,0.32-0.85,0.81-0.85h0.48c0.52,0,0.81,0.32,0.81,0.85v2.46
		c1.09-2.34,3.02-3.79,5.6-3.79c0.81,0,1.33,0.08,2.02,0.28c0.4,0.12,0.73,0.44,0.48,1.13l-0.08,0.32c-0.2,0.6-0.64,0.64-1.13,0.48
		c-0.56-0.16-1.01-0.24-1.49-0.24c-3.06,0-5.28,2.94-5.28,7.01v13.18c0,0.52-0.32,0.89-0.81,0.89h-0.6
		C5.95,42.1,5.63,41.74,5.63,41.22z"/>
	<path class="st1" d="M17.15,35.41c0-4.43,3.39-7.37,8.38-7.37c2.62,0,4.88,0.81,6.69,1.89V27.4c0-3.63-2.42-6.33-6.13-6.33
		c-2.18,0-4.47,1.13-6.57,2.82c-0.48,0.4-0.85,0.24-1.17-0.12l-0.16-0.2c-0.4-0.48-0.2-1.01,0.24-1.37c2.62-2.26,5-3.14,7.74-3.14
		c5.2,0,8.18,3.38,8.18,8.87V41.1c0,0.69-0.28,1.01-0.81,1.01h-0.52c-0.52,0-0.81-0.4-0.81-1.01v-2.42
		c-1.65,2.46-4.39,3.91-7.29,3.91C20.29,42.59,17.15,39.73,17.15,35.41z M25.05,40.57c3.59,0,7.17-2.62,7.17-6.65v-1.69
		c-1.45-0.85-3.99-2.18-6.65-2.18c-3.71,0-6.17,2.26-6.17,5.4C19.41,38.36,21.71,40.57,25.05,40.57z"/>
	<path class="st1" d="M39.19,30.82c0-7.58,4.19-11.77,10.16-11.77c3.47,0,6.25,1.45,8.02,3.83v-9.71c0-0.44,0.24-0.73,0.64-0.81
		l0.77-0.12c0.48-0.08,0.77,0.2,0.77,0.69v28.33c0,0.52-0.28,0.85-0.81,0.85h-0.56c-0.52,0-0.81-0.32-0.81-0.85v-2.5
		c-1.81,2.38-4.59,3.83-8.02,3.83C43.39,42.59,39.19,38.4,39.19,30.82z M49.55,40.57c4.43,0,8.02-3.43,8.02-9.75
		c0-6.45-3.55-9.75-8.02-9.75c-4.88,0-8.1,3.34-8.1,9.75C41.45,37.19,44.67,40.57,49.55,40.57z"/>
	<path class="st1" d="M67.64,11.44c0.97,0,1.73,0.81,1.73,1.77s-0.77,1.77-1.73,1.77c-0.97,0-1.77-0.81-1.77-1.77
		S66.68,11.44,67.64,11.44z M66.52,41.22V20.38c0-0.52,0.32-0.85,0.81-0.85h0.6c0.52,0,0.81,0.32,0.81,0.85v20.83
		c0,0.52-0.28,0.89-0.81,0.89h-0.6C66.84,42.1,66.52,41.74,66.52,41.22z"/>
	<path class="st1" d="M73.89,30.58c0-7.33,4.23-11.53,10.68-11.53c6.45,0,10.68,4.19,10.68,11.53c0,7.82-4.23,12.01-10.68,12.01
		C78.12,42.59,73.89,38.4,73.89,30.58z M84.57,40.57c4.88,0,8.42-3.26,8.42-9.99c0-6.25-3.55-9.51-8.42-9.51
		c-4.88,0-8.42,3.26-8.42,9.51C76.15,37.31,79.65,40.57,84.57,40.57z"/>
	<path class="st1" d="M98.07,35.46c0-4.59,3.43-7.62,8.66-7.62c1.57,0,3.14,0.4,4.59,0.93v-0.81c0-2.1-1.33-3.91-3.67-3.91
		c-1.97,0-3.55,0.69-4.51,1.25c-0.89,0.48-1.77,0.4-2.34-0.73l-0.44-0.93c-0.64-1.33-0.36-2.01,0.48-2.54
		c1.97-1.25,4.88-2.06,7.29-2.06c4.88,0,9.63,2.38,9.63,9.59v11.36c0,1.37-0.64,2.1-1.85,2.1h-1.65c-1.17,0-1.81-0.77-1.81-2.1
		v-0.24c-1.69,1.69-3.95,2.82-6.45,2.82C101.21,42.59,98.07,39.73,98.07,35.46z M107.78,38.16c2.01,0,3.71-1.49,3.71-3.1v-2.22
		c-0.73-0.48-2.18-0.89-3.63-0.89c-1.97,0-3.26,1.05-3.26,3.1C104.6,37.11,105.85,38.16,107.78,38.16z"/>
	<path class="st1" d="M121.84,46.05c-0.64-0.77-0.93-1.65-0.08-2.66l1.13-1.29c0.64-0.73,1.41-0.97,2.42-0.08
		c1.13,1.13,3.3,2.66,5.84,2.66c2.5,0,4.92-1.65,4.92-4.59v-2.22c-1.49,1.41-3.34,1.77-5.4,1.77c-5.4,0-9.51-4.19-9.51-10.52
		c0-6.53,4.11-10.07,9.55-10.07c2.42,0,4.51,0.73,6.17,2.54v-0.04c0-1.29,0.64-2.01,1.85-2.01h1.85c1.17,0,1.85,0.73,1.85,2.01
		v17.17c0,7.41-4.96,11.04-11.36,11.04C126.8,49.76,123.78,48.15,121.84,46.05z M132.28,34.57c2.5,0,4.27-2.3,4.27-5.4
		c0-3.43-1.77-5.04-4.27-5.04c-2.46,0-4.23,1.61-4.23,5C128.05,32.27,129.82,34.57,132.28,34.57z"/>
	<path class="st1" d="M145.94,30.78c0-7.21,4.51-11.73,10.84-11.73c3.22,0,6.04,1.25,7.78,3.18c1.85,2.06,2.78,5,2.78,8.1
		c0,1.57-0.36,2.14-1.85,2.14h-12.82c0.32,2.98,2.58,5.12,5.24,5.12c1.45,0,2.98-0.69,4.43-1.77c0.73-0.56,1.29-0.85,2.1-0.04
		l1.25,1.21c0.93,0.93,0.56,1.69,0.08,2.3c-1.81,2.14-5.48,3.3-8.66,3.3C150.66,42.59,145.94,37.75,145.94,30.78z M150.05,12.2
		l5.72-3.26c0.77-0.44,1.17-0.4,1.93,0l5.72,3.26c1.17,0.69,1.25,1.37,0.6,2.38l-0.56,0.89c-0.68,1.01-1.13,1.13-2.42,0.48
		l-4.31-2.18l-4.31,2.18c-1.29,0.64-1.77,0.52-2.42-0.48l-0.56-0.89C148.8,13.57,148.88,12.89,150.05,12.2z M160.57,28.6
		c0-1.17-0.4-2.5-0.97-3.18c-0.73-0.89-1.81-1.37-2.98-1.37c-2.14,0-3.63,1.53-3.91,4.55H160.57z"/>
	<path class="st1" d="M170.72,40.25V21.39c0-1.17,0.64-1.85,1.81-1.85h2.14c1.17,0,1.81,0.68,1.81,1.85v0.89
		c1.33-1.89,3.34-3.22,6.29-3.22c4.92,0,8.38,3.43,8.38,8.79v12.41c0,1.17-0.69,1.85-1.85,1.85H186c-1.17,0-1.85-0.69-1.85-1.85
		V28.36c0-2.01-1.21-3.39-3.18-3.39c-2.01,0-3.26,1.37-3.26,3.39v11.89c0,1.17-0.64,1.85-1.81,1.85h-3.34
		C171.37,42.1,170.72,41.42,170.72,40.25z"/>
	<path class="st1" d="M194.46,30.54c0-7.33,4.67-11.48,11-11.48c3.43,0,6.04,1.37,7.98,3.51c0.52,0.6,0.93,1.45-0.04,2.34
		l-1.97,1.69c-0.64,0.56-1.17,0.85-2.1-0.08c-1.01-1.05-2.38-1.45-3.59-1.45c-2.58,0-4.39,2.01-4.39,5.48
		c0,3.95,1.77,6.09,4.39,6.09c1.21,0,2.58-0.44,3.59-1.49c0.93-0.93,1.45-0.64,2.1-0.08l1.97,1.69c0.97,0.89,0.56,1.73,0.04,2.34
		c-1.93,2.14-4.55,3.51-7.98,3.51C199.13,42.59,194.46,38.36,194.46,30.54z"/>
	<path class="st1" d="M220.53,9.18c2.26,0,4.03,1.77,4.03,4.03c0,2.22-1.77,4.03-4.03,4.03c-2.22,0-4.03-1.81-4.03-4.03
		C216.5,10.95,218.32,9.18,220.53,9.18z M217.03,40.25V21.39c0-1.17,0.64-1.85,1.85-1.85h3.3c1.17,0,1.85,0.68,1.85,1.85v18.86
		c0,1.17-0.69,1.85-1.85,1.85h-3.3C217.67,42.1,217.03,41.42,217.03,40.25z"/>
	<path class="st1" d="M227.42,35.46c0-4.59,3.43-7.62,8.66-7.62c1.57,0,3.14,0.4,4.59,0.93v-0.81c0-2.1-1.33-3.91-3.67-3.91
		c-1.97,0-3.55,0.69-4.51,1.25c-0.89,0.48-1.77,0.4-2.34-0.73l-0.44-0.93c-0.64-1.33-0.36-2.01,0.48-2.54
		c1.97-1.25,4.88-2.06,7.29-2.06c4.88,0,9.63,2.38,9.63,9.59v11.36c0,1.37-0.64,2.1-1.85,2.1h-1.65c-1.17,0-1.81-0.77-1.81-2.1
		v-0.24c-1.69,1.69-3.95,2.82-6.45,2.82C230.57,42.59,227.42,39.73,227.42,35.46z M237.13,38.16c2.01,0,3.71-1.49,3.71-3.1v-2.22
		c-0.73-0.48-2.18-0.89-3.63-0.89c-1.97,0-3.26,1.05-3.26,3.1C233.95,37.11,235.2,38.16,237.13,38.16z"/>
	<path class="st1" d="M253.37,28c0-14.91,12.05-27,27-27c14.91,0,27,12.09,27,27s-12.09,27-27,27C265.42,55,253.37,42.91,253.37,28z
		 M263.57,28.93c7.09,3.18,13.02,8.7,16.72,15.55c1.09,1.93,3.63,2.46,5.36,1.09c6.65-5.28,11.4-12.94,12.98-21.64
		c0.36-1.93-0.32-3.87-1.77-5.2c-5.28-4.8-11.97-8.06-19.42-9.03c-1.57-0.24-3.26,0.2-4.55,1.21c-4.71,3.43-8.54,7.94-11.08,13.18
		C260.91,25.9,261.68,28.08,263.57,28.93z"/>
</g>
</svg>
