<svg xmlns="http://www.w3.org/2000/svg" viewBox="0 0 42.31 43.92"><defs><style>.cls-1{fill:#898989;}</style></defs><title>simbolo-noticia</title><g id="Layer_2" data-name="Layer 2"><g id="Layer_1-2" data-name="Layer 1"><path class="cls-1" d="M39.48,33.3a21,21,0,0,0,.23-20.65.5.5,0,0,0-.88.48,19.94,19.94,0,0,1,.67,17.93V23.33a.5.5,0,0,0-.5-.5H34.89V2.65A2.61,2.61,0,0,0,32.34,0H9.59A2.6,2.6,0,0,0,7,2.65V37.13a20,20,0,0,1-3.56-24,.5.5,0,0,0-.88-.48A21.13,21.13,0,0,0,39.33,33.53.51.51,0,0,0,39.48,33.3ZM8,38s0,0,0,0V2.65A1.61,1.61,0,0,1,9.59,1H32.34a1.61,1.61,0,0,1,1.55,1.65V38a.45.45,0,0,0,.1.28A20.1,20.1,0,0,1,8,38Zm26.86-.56V23.83H38.5V33A20.11,20.11,0,0,1,34.89,37.48Z"/><path class="cls-1" d="M31.48,22.73H10.86a.5.5,0,0,0,0,1H31.48a.5.5,0,0,0,0-1Z"/><path class="cls-1" d="M31.48,26.64H10.86a.5.5,0,0,0-.5.5.51.51,0,0,0,.5.5H31.48a.5.5,0,0,0,.5-.5A.5.5,0,0,0,31.48,26.64Z"/><path class="cls-1" d="M31.48,30.54H10.86a.51.51,0,0,0-.5.5.5.5,0,0,0,.5.5H31.48A.5.5,0,0,0,32,31,.5.5,0,0,0,31.48,30.54Z"/><path class="cls-1" d="M31.48,34.45H10.86a.51.51,0,0,0-.5.5.5.5,0,0,0,.5.5H31.48A.5.5,0,0,0,32,35,.5.5,0,0,0,31.48,34.45Z"/><path class="cls-1" d="M29.16,38.15h-16a.5.5,0,0,0-.5.5.5.5,0,0,0,.5.5h16a.5.5,0,0,0,.5-.5A.5.5,0,0,0,29.16,38.15Z"/><rect class="cls-1" x="10.86" y="9.21" width="21.12" height="10.57" rx="1.21"/><path class="cls-1" d="M30.77,4.56H12.08c-.67,0-1.22.39-1.22.86v.36c0,.47.55.86,1.22.86H30.77c.67,0,1.22-.39,1.22-.86V5.42C32,5,31.44,4.56,30.77,4.56Z"/></g></g></svg>