<svg xmlns="http://www.w3.org/2000/svg" viewBox="0 0 42.31 43.92"><defs><style>.cls-1{fill:#898989;}</style></defs><title>simbolo-radio</title><g id="Layer_2" data-name="Layer 2"><g id="Layer_1-2" data-name="Layer 1"><path class="cls-1" d="M28.52,22.24a.66.66,0,0,0-.65.66,6.52,6.52,0,0,1-13,0,.66.66,0,0,0-1.32,0,7.84,7.84,0,0,0,7.17,7.8V33H17.77a.66.66,0,1,0,0,1.31h7.17a.66.66,0,0,0,0-1.31H22V30.7a7.84,7.84,0,0,0,7.17-7.8A.66.66,0,0,0,28.52,22.24Z"/><path class="cls-1" d="M21.35,27.14a4.24,4.24,0,0,0,4.24-4.24V16.65a4.24,4.24,0,0,0-8.48,0V22.9A4.24,4.24,0,0,0,21.35,27.14Z"/><path class="cls-1" d="M21,4.56a1.24,1.24,0,1,0-1.23-1.24A1.24,1.24,0,0,0,21,4.56Z"/><path class="cls-1" d="M39.71,12.65a.5.5,0,0,0-.88.48,20,20,0,0,1-3.94,24.35V2.65A2.61,2.61,0,0,0,32.34,0H9.59A2.6,2.6,0,0,0,7,2.65V37.13a20,20,0,0,1-3.56-24,.5.5,0,0,0-.88-.48,21.16,21.16,0,1,0,37.11,0ZM8,38s0,0,0,0V6.53H12.5a.5.5,0,0,0,0-1H8V2.65A1.61,1.61,0,0,1,9.59,1H32.34a1.61,1.61,0,0,1,1.55,1.65V5.53H16.67a.5.5,0,0,0,0,1H33.89V38a.45.45,0,0,0,.1.28A20.1,20.1,0,0,1,8,38Z"/></g></g></svg>