<svg xmlns="http://www.w3.org/2000/svg" viewBox="0 0 42.78 43.95"><defs><style>.cls-1{fill:#898989;}</style></defs><title>simbolo-servicos</title><g id="Layer_2" data-name="Layer 2"><g id="Layer_1-2" data-name="Layer 1"><circle class="cls-1" cx="15.52" cy="15.68" r="6.31"/><path class="cls-1" d="M24.58,15.23a3.86,3.86,0,1,0,3.86-3.86A3.85,3.85,0,0,0,24.58,15.23Z"/><path class="cls-1" d="M27.41,9.17A1.32,1.32,0,1,0,26.1,7.86,1.32,1.32,0,0,0,27.41,9.17Z"/><path class="cls-1" d="M21.83,8.54a4.27,4.27,0,1,0-4.27-4.27A4.27,4.27,0,0,0,21.83,8.54Z"/><path class="cls-1" d="M42.47,26.82,37.4,24.63a.46.46,0,0,0-.38,0,.4.4,0,0,0-.19.15L36,24.12,35.87,24c-1.62-1.43-2.8-2.47-5-3a8.23,8.23,0,0,0-7.29,1.78l-.24.22c-.31.28-.45.39-.69.39H16.75a2.71,2.71,0,0,0,0,5.42h4.5a.61.61,0,0,1,0,1.21H16a2.22,2.22,0,0,1-1.24-.52l-6-7.45a2.7,2.7,0,0,0-3.58-.35h0a2.71,2.71,0,0,0-.58,3.8l6.42,9.3a7.13,7.13,0,0,0,5.7,2.85H31.22l-.07.16a.49.49,0,0,0,.26.66l5.07,2.2a.45.45,0,0,0,.2,0,.51.51,0,0,0,.46-.3l5.59-12.93A.5.5,0,0,0,42.47,26.82ZM16.75,36.65a6.14,6.14,0,0,1-4.89-2.43l-6.42-9.3a1.76,1.76,0,0,1-.32-1.28A1.7,1.7,0,0,1,8,22.7l6,7.46A3.16,3.16,0,0,0,16,31h5.23a1.61,1.61,0,0,0,0-3.21h-4.5a1.71,1.71,0,0,1,0-3.42h5.87A1.92,1.92,0,0,0,24,23.74l.23-.2A7.22,7.22,0,0,1,30.62,22c2,.47,3,1.38,4.59,2.77l1.18,1-.24.57-4.5,10.38Zm19.67,2.9-4.16-1.8.17-.39h0L37,26.85l.47-1.11,4.16,1.8Z"/><path class="cls-1" d="M30,4.72A20,20,0,0,1,41.19,20.59a.5.5,0,0,0,.49.45h.06a.5.5,0,0,0,.44-.55A21,21,0,0,0,30.46,3.82a.51.51,0,0,0-.67.23A.5.5,0,0,0,30,4.72Z"/><path class="cls-1" d="M29.12,41.31a20,20,0,0,1-8,1.64A20.14,20.14,0,0,1,12.28,4.72a.5.5,0,1,0-.44-.9A21.14,21.14,0,0,0,21.15,44a21,21,0,0,0,8.36-1.72.5.5,0,0,0-.39-.92Z"/></g></g></svg>