<svg xmlns="http://www.w3.org/2000/svg" viewBox="0 0 39.66 43.92"><defs><style>.cls-1{fill:#898989;}</style></defs><title>simbolo-tv</title><g id="Layer_2" data-name="Layer 2"><g id="Layer_1-2" data-name="Layer 1"><path class="cls-1" d="M33.42,37.64a20.13,20.13,0,0,1-27.18,0,.5.5,0,0,0-.68.74,21.14,21.14,0,0,0,28.53,0,.5.5,0,0,0-.67-.74Z"/><path class="cls-1" d="M4.16,9.82a.52.52,0,0,0,.38-.17,20.32,20.32,0,0,1,7-5.24.5.5,0,0,0-.41-.91A21.52,21.52,0,0,0,3.78,9a.51.51,0,0,0,.06.71A.49.49,0,0,0,4.16,9.82Z"/><path class="cls-1" d="M37.45,11.2h-14a3.65,3.65,0,0,0-1.8-2.66L25.5.72a.5.5,0,1,0-.9-.44L20.77,8.16a3.38,3.38,0,0,0-.9-.13,3.59,3.59,0,0,0-.81.1l-1.9-5a.49.49,0,0,0-.64-.29.5.5,0,0,0-.29.65l1.9,5a3.64,3.64,0,0,0-1.88,2.71H2.2A2.21,2.21,0,0,0,0,13.41V33.25a2.21,2.21,0,0,0,2.2,2.2H17.29V38h-8a.5.5,0,0,0,0,1H30.37a.5.5,0,1,0,0-1H22.45v-2.5h15a2.21,2.21,0,0,0,2.21-2.2V13.41A2.21,2.21,0,0,0,37.45,11.2Zm-18.53-2h0A2.51,2.51,0,0,1,19.87,9a2.67,2.67,0,0,1,2.62,2.17H17.24A2.68,2.68,0,0,1,18.92,9.21ZM21.45,38H18.29v-2.5h3.16Zm17.21-4.7a1.21,1.21,0,0,1-1.21,1.2H2.2A1.2,1.2,0,0,1,1,33.25V13.41A1.21,1.21,0,0,1,2.2,12.2H37.45a1.21,1.21,0,0,1,1.21,1.21Z"/><rect class="cls-1" x="3.31" y="14.48" width="33.04" height="17.69" rx="1.11"/><path class="cls-1" d="M28.29,4.51A20.18,20.18,0,0,1,35.1,9.65a.51.51,0,0,0,.71,0,.51.51,0,0,0,0-.71A21.35,21.35,0,0,0,28.71,3.6a.52.52,0,0,0-.67.25A.5.5,0,0,0,28.29,4.51Z"/></g></g></svg>