<svg xmlns="http://www.w3.org/2000/svg" viewBox="0 0 42.31 43.92"><defs><style>.cls-1{fill:#898989;}</style></defs><title>simbolo-play</title><g id="Layer_2" data-name="Layer 2"><g id="Layer_1-2" data-name="Layer 1"><path class="cls-1" d="M28.25,20.57,20.63,15.5l-2.42-1.62a1.68,1.68,0,0,0-2.6,1.4V28.65a1.68,1.68,0,0,0,2.6,1.4l2.42-1.62,7.62-5.07A1.68,1.68,0,0,0,28.25,20.57Z"/><path class="cls-1" d="M21,4.56a1.24,1.24,0,1,0-1.23-1.24A1.24,1.24,0,0,0,21,4.56Z"/><path class="cls-1" d="M39.71,12.65a.5.5,0,0,0-.88.48,20,20,0,0,1-3.94,24.35V2.65A2.61,2.61,0,0,0,32.33,0H9.59A2.6,2.6,0,0,0,7,2.65V37.13a20,20,0,0,1-3.56-24,.5.5,0,0,0-.88-.48,21.16,21.16,0,1,0,37.11,0ZM8,38s0,0,0,0V6.53H12.5a.5.5,0,0,0,0-1H8V2.65A1.61,1.61,0,0,1,9.59,1H32.33a1.61,1.61,0,0,1,1.56,1.65V5.53H16.66a.5.5,0,0,0,0,1H33.89V38a.45.45,0,0,0,.1.28A20.1,20.1,0,0,1,8,38Z"/></g></g></svg>