<svg xmlns="http://www.w3.org/2000/svg" width="213" height="64" viewBox="0 0 213 64"><rect width="213" height="64" rx="10" fill="#fff"/><path d="M1.025-10.569V0H4.651C7.793,0,9.639-1.956,9.639-5.288s-1.853-5.281-4.988-5.281ZM2.344-9.382H4.563c2.4,0,3.728,1.465,3.728,4.109,0,2.622-1.333,4.087-3.728,4.087H2.344ZM15.563.073c2.219,0,3.64-1.575,3.64-4.021s-1.421-4.021-3.64-4.021-3.64,1.567-3.64,4.021S13.344.073,15.563.073Zm0-1.135c-1.465,0-2.344-1.077-2.344-2.886s.872-2.886,2.344-2.886,2.344,1.069,2.344,2.886S17.035-1.062,15.563-1.062ZM31.733-7.9h-1.26l-1.6,6.453H28.84L27.031-7.9H25.8L23.992-1.443h-.029L22.358-7.9H21.1L23.311,0H24.6l1.8-6.138h.029L28.233,0h1.289ZM34.017,0h1.274V-4.585a2.021,2.021,0,0,1,2.08-2.249c1.245,0,1.846.7,1.846,1.992V0h1.274V-5.061a2.6,2.6,0,0,0-2.739-2.908,2.6,2.6,0,0,0-2.5,1.355h-.029V-7.9h-1.2Zm9.44,0h1.274V-11.03H43.457Zm7.528.073c2.219,0,3.64-1.575,3.64-4.021S53.2-7.969,50.985-7.969s-3.64,1.567-3.64,4.021S48.766.073,50.985.073Zm0-1.135c-1.465,0-2.344-1.077-2.344-2.886s.872-2.886,2.344-2.886,2.344,1.069,2.344,2.886S52.458-1.062,50.985-1.062Zm8.759.029c-1,0-1.633-.476-1.633-1.208,0-.762.615-1.194,1.8-1.267l2.065-.132V-3A2.051,2.051,0,0,1,59.744-1.033ZM59.473.073A2.814,2.814,0,0,0,62.014-1.37h.029V0h1.208V-5.42c0-1.553-1.2-2.549-3.069-2.549-1.655,0-2.952,1.018-2.988,2.351h1.223a1.636,1.636,0,0,1,1.75-1.216c1.165,0,1.809.542,1.809,1.523v.659l-2.212.132c-1.919.117-2.959.916-2.959,2.271A2.366,2.366,0,0,0,59.473.073Zm9.667,0A2.785,2.785,0,0,0,71.7-1.333h.022V0h1.216V-11.03H71.659v4.417H71.63a2.754,2.754,0,0,0-2.52-1.355c-1.963,0-3.354,1.611-3.354,4.021S67.155.073,69.14.073Zm.227-6.907c1.37,0,2.3,1.172,2.3,2.886s-.93,2.886-2.3,2.886S67.06-2.2,67.06-3.948,67.983-6.833,69.367-6.833ZM80.724,0H82V-4.585a2.021,2.021,0,0,1,2.08-2.249c1.245,0,1.846.7,1.846,1.992V0H87.2V-5.061A2.6,2.6,0,0,0,84.46-7.969a2.6,2.6,0,0,0-2.5,1.355h-.029V-7.9h-1.2ZM92.669-1.033c-1,0-1.633-.476-1.633-1.208,0-.762.615-1.194,1.8-1.267L94.9-3.64V-3A2.051,2.051,0,0,1,92.669-1.033ZM92.4.073A2.814,2.814,0,0,0,94.939-1.37h.029V0h1.208V-5.42c0-1.553-1.2-2.549-3.069-2.549-1.655,0-2.952,1.018-2.988,2.351h1.223a1.636,1.636,0,0,1,1.75-1.216c1.165,0,1.809.542,1.809,1.523v.659l-2.212.132c-1.919.117-2.959.916-2.959,2.271A2.366,2.366,0,0,0,92.4.073Z" transform="translate(68 22)"/><path d="M15.194,0H18.55L11.172-20.433H7.746L.368,0h3.3L5.537-5.522h7.788ZM9.388-17.035h.085l3.044,8.963H6.344Zm19.031,1.5a5.432,5.432,0,0,0-4.9,2.7h-.071v-2.549H20.49V5.1h3.073V-2.521h.057A5.269,5.269,0,0,0,28.49.156c3.866,0,6.429-3.087,6.429-7.845S32.342-15.534,28.419-15.534ZM27.641-2.45c-2.45,0-4.092-2.1-4.106-5.239.014-3.129,1.671-5.239,4.106-5.239,2.492,0,4.135,2.067,4.135,5.239S30.133-2.45,27.641-2.45ZM45.3-15.534a5.432,5.432,0,0,0-4.9,2.7h-.071v-2.549H37.369V5.1h3.073V-2.521H40.5A5.269,5.269,0,0,0,45.369.156c3.866,0,6.429-3.087,6.429-7.845S49.221-15.534,45.3-15.534ZM44.52-2.45c-2.45,0-4.092-2.1-4.106-5.239.014-3.129,1.671-5.239,4.106-5.239,2.492,0,4.135,2.067,4.135,5.239S47.012-2.45,44.52-2.45ZM60.336-5.692C60.535-2,63.593.34,68.125.34c4.843,0,7.887-2.393,7.887-6.216,0-2.988-1.742-4.673-5.933-5.664l-2.251-.552c-2.634-.651-3.71-1.5-3.71-2.945,0-1.812,1.685-3.059,4.149-3.059s4.149,1.232,4.333,3.271h3.087c-.1-3.526-3.059-5.947-7.377-5.947-4.361,0-7.434,2.421-7.434,5.947,0,2.846,1.742,4.6,5.494,5.508l2.648.637c2.648.651,3.767,1.6,3.767,3.186,0,1.827-1.855,3.158-4.432,3.158-2.69,0-4.659-1.331-4.885-3.356Zm19.13-13.141v3.455H77.343v2.421h2.124V-4.05C79.467-1.076,80.656.1,83.729.1a8.665,8.665,0,0,0,1.728-.156V-2.478a9.9,9.9,0,0,1-1.048.071c-1.289,0-1.883-.623-1.883-1.954v-8.6h2.945v-2.421H82.525v-3.455ZM94.292.184c4.446,0,7.264-3.03,7.264-7.873s-2.832-7.887-7.264-7.887-7.278,3.059-7.278,7.887S89.846.184,94.292.184Zm0-2.549c-2.605,0-4.163-1.968-4.163-5.324s1.558-5.338,4.163-5.338,4.149,1.982,4.149,5.338S96.9-2.365,94.292-2.365ZM104.021,0h3.073V-9.176c0-2.167,1.274-3.568,3.3-3.568a4.5,4.5,0,0,1,1.4.184v-2.875a5.04,5.04,0,0,0-1.076-.1,3.681,3.681,0,0,0-3.71,2.747h-.057v-2.591h-2.931Zm15.505-13.07a3.754,3.754,0,0,1,3.823,3.979h-7.8A3.971,3.971,0,0,1,119.526-13.07ZM123.335-4.5a3.538,3.538,0,0,1-3.611,2.195,4.062,4.062,0,0,1-4.191-4.418V-6.91h10.889V-7.986c0-4.659-2.662-7.59-6.882-7.59-4.3,0-7.108,3.129-7.108,7.944S115.207.184,119.667.184c3.455,0,6.16-1.926,6.6-4.687Z" transform="translate(68 51)"/><path d="M10.92,41.908a5.271,5.271,0,0,1-3.607-1.716A23.374,23.374,0,0,1,4.424,36.6,26.337,26.337,0,0,1,.346,26.5c-.96-5.421.24-8.981,1.416-11.013a10.694,10.694,0,0,1,3.7-3.8,9.942,9.942,0,0,1,5-1.452h.106A11.76,11.76,0,0,1,14.8,11.311a8.019,8.019,0,0,0,2.606.746,8.172,8.172,0,0,0,2.519-.735A13.644,13.644,0,0,1,24.785,10.1a6.7,6.7,0,0,1,.669.033,10.577,10.577,0,0,1,3.432.746,9.274,9.274,0,0,1,4.258,3.4l-.033.021a10.244,10.244,0,0,0-2.442,2.162,8.794,8.794,0,0,0-2.064,5.8,9.241,9.241,0,0,0,5.632,8.47l.011,0-.013.043a23,23,0,0,1-2.9,5.919c-1.64,2.387-3.5,5.093-6.436,5.147h-.128a7.262,7.262,0,0,1-3.13-.785,8.424,8.424,0,0,0-3.686-.88,8.952,8.952,0,0,0-3.868.908,8.006,8.006,0,0,1-3.024.808ZM17.5,9.675c-.143,0-.286-.006-.426-.016A8.719,8.719,0,0,1,19.3,3.174,9.414,9.414,0,0,1,25.5,0a9.239,9.239,0,0,1-2.19,6.693A7.913,7.913,0,0,1,17.5,9.675Z" transform="translate(16.823 11)"/></svg>