<svg xmlns="http://www.w3.org/2000/svg" width="213" height="64" viewBox="0 0 213 64"><rect width="213" height="64" rx="10" fill="#fff"/><path d="M1.238,0V-10.664h3.01a4.846,4.846,0,0,1,2.461.615A4.161,4.161,0,0,1,8.361-8.3a5.7,5.7,0,0,1,.59,2.607v.681a5.718,5.718,0,0,1-.582,2.644A4.1,4.1,0,0,1,6.705-.623,5.155,5.155,0,0,1,4.189,0ZM2.644-9.507V-1.15H4.124A3.22,3.22,0,0,0,6.654-2.161a4.174,4.174,0,0,0,.9-2.878v-.623a4.24,4.24,0,0,0-.853-2.823A3.038,3.038,0,0,0,4.285-9.507ZM11.7-4.036a4.681,4.681,0,0,1,.458-2.095,3.415,3.415,0,0,1,1.274-1.436A3.469,3.469,0,0,1,15.3-8.071a3.342,3.342,0,0,1,2.618,1.121,4.311,4.311,0,0,1,1,2.981v.1A4.722,4.722,0,0,1,18.474-1.8,3.365,3.365,0,0,1,17.207-.366a3.509,3.509,0,0,1-1.893.513A3.334,3.334,0,0,1,12.7-.974a4.29,4.29,0,0,1-1-2.966Zm1.362.161a3.39,3.39,0,0,0,.612,2.117,1.957,1.957,0,0,0,1.637.8,1.945,1.945,0,0,0,1.641-.809,3.707,3.707,0,0,0,.608-2.267,3.384,3.384,0,0,0-.619-2.113A1.968,1.968,0,0,0,15.3-6.958a1.946,1.946,0,0,0-1.619.8A3.68,3.68,0,0,0,13.065-3.875ZM28.833-1.868l1.523-6.057h1.355L29.4,0h-1.1L26.379-6.006,24.5,0h-1.1l-2.3-7.925h1.348l1.56,5.933,1.846-5.933h1.091ZM35.57-7.925l.044,1a2.888,2.888,0,0,1,2.373-1.143q2.512,0,2.534,2.834V0H39.166V-5.244a1.824,1.824,0,0,0-.392-1.267,1.57,1.57,0,0,0-1.2-.41,1.956,1.956,0,0,0-1.157.352,2.387,2.387,0,0,0-.776.923V0H34.288V-7.925ZM45.237,0H43.882V-11.25h1.355Zm3.009-4.036A4.681,4.681,0,0,1,48.7-6.13a3.415,3.415,0,0,1,1.274-1.436,3.469,3.469,0,0,1,1.864-.505,3.342,3.342,0,0,1,2.618,1.121,4.311,4.311,0,0,1,1,2.981v.1A4.722,4.722,0,0,1,55.017-1.8,3.365,3.365,0,0,1,53.75-.366a3.509,3.509,0,0,1-1.893.513A3.334,3.334,0,0,1,49.246-.974a4.29,4.29,0,0,1-1-2.966Zm1.362.161a3.39,3.39,0,0,0,.612,2.117,1.957,1.957,0,0,0,1.637.8A1.945,1.945,0,0,0,53.5-1.769a3.707,3.707,0,0,0,.608-2.267,3.384,3.384,0,0,0-.619-2.113,1.968,1.968,0,0,0-1.644-.809,1.946,1.946,0,0,0-1.619.8A3.68,3.68,0,0,0,49.608-3.875ZM63.252,0a2.846,2.846,0,0,1-.19-.835,3.023,3.023,0,0,1-2.256.981,2.8,2.8,0,0,1-1.923-.663A2.145,2.145,0,0,1,58.133-2.2a2.24,2.24,0,0,1,.941-1.923A4.437,4.437,0,0,1,61.721-4.8H63.04v-.623a1.522,1.522,0,0,0-.425-1.132,1.707,1.707,0,0,0-1.252-.421,1.976,1.976,0,0,0-1.216.366,1.079,1.079,0,0,0-.491.886H58.294a1.87,1.87,0,0,1,.421-1.146,2.874,2.874,0,0,1,1.143-.875,3.844,3.844,0,0,1,1.586-.322,3.133,3.133,0,0,1,2.146.685A2.47,2.47,0,0,1,64.395-5.5v3.647a4.459,4.459,0,0,0,.278,1.736V0ZM61-1.033a2.381,2.381,0,0,0,1.208-.33,1.994,1.994,0,0,0,.828-.857V-3.845H61.978q-2.49,0-2.49,1.458a1.234,1.234,0,0,0,.425,1A1.633,1.633,0,0,0,61-1.033Zm6.386-3a4.642,4.642,0,0,1,.864-2.933,2.733,2.733,0,0,1,2.263-1.11,2.748,2.748,0,0,1,2.2.952V-11.25h1.355V0H72.831l-.066-.85a2.759,2.759,0,0,1-2.263,1A2.707,2.707,0,0,1,68.257-.981a4.7,4.7,0,0,1-.868-2.944Zm1.355.154A3.515,3.515,0,0,0,69.3-1.765,1.8,1.8,0,0,0,70.839-1a1.977,1.977,0,0,0,1.882-1.157V-5.8a1.992,1.992,0,0,0-1.868-1.121,1.808,1.808,0,0,0-1.553.769A3.87,3.87,0,0,0,68.744-3.875Zm14.829-4.05.044,1A2.888,2.888,0,0,1,85.99-8.071q2.512,0,2.534,2.834V0H87.17V-5.244a1.824,1.824,0,0,0-.392-1.267,1.57,1.57,0,0,0-1.2-.41,1.956,1.956,0,0,0-1.157.352,2.387,2.387,0,0,0-.776.923V0H82.292V-7.925Zm7.836,3.889a4.681,4.681,0,0,1,.458-2.095,3.415,3.415,0,0,1,1.274-1.436,3.469,3.469,0,0,1,1.864-.505,3.342,3.342,0,0,1,2.618,1.121,4.311,4.311,0,0,1,1,2.981v.1A4.722,4.722,0,0,1,98.18-1.8,3.365,3.365,0,0,1,96.913-.366,3.509,3.509,0,0,1,95.02.146,3.334,3.334,0,0,1,92.409-.974a4.29,4.29,0,0,1-1-2.966Zm1.362.161a3.39,3.39,0,0,0,.612,2.117,1.957,1.957,0,0,0,1.637.8,1.945,1.945,0,0,0,1.641-.809,3.707,3.707,0,0,0,.608-2.267,3.384,3.384,0,0,0-.619-2.113,1.968,1.968,0,0,0-1.644-.809,1.946,1.946,0,0,0-1.619.8A3.68,3.68,0,0,0,92.771-3.875Z" transform="translate(68.928 24)"/><path d="M6.844-1.418A3.009,3.009,0,0,0,9.3-2.654a5.883,5.883,0,0,0,.979-3.7A6.9,6.9,0,0,0,9.844-8.93a2.993,2.993,0,0,0-3-2.074,2.991,2.991,0,0,0-3,2.191A8.685,8.685,0,0,0,3.41-5.836a6.31,6.31,0,0,0,.434,2.473A2.991,2.991,0,0,0,6.844-1.418ZM1.383-12.492H3.434v1.664a5.12,5.12,0,0,1,1.383-1.324,4.451,4.451,0,0,1,2.508-.7,4.716,4.716,0,0,1,3.621,1.635,6.7,6.7,0,0,1,1.488,4.67q0,4.1-2.145,5.859A4.845,4.845,0,0,1,7.125.422,4.3,4.3,0,0,1,4.746-.2,5.481,5.481,0,0,1,3.492-1.406V5H1.383Zm13.57-4.723h2.109V0H14.953ZM21.844-3.34A1.737,1.737,0,0,0,22.512-1.9a2.477,2.477,0,0,0,1.582.527,4.81,4.81,0,0,0,2.156-.516,2.9,2.9,0,0,0,1.758-2.8v-1.7a3.609,3.609,0,0,1-1,.41,8.488,8.488,0,0,1-1.2.234l-1.277.164a4.885,4.885,0,0,0-1.723.48A1.872,1.872,0,0,0,21.844-3.34Zm5.109-4.266a1.146,1.146,0,0,0,.973-.609,1.854,1.854,0,0,0,.141-.809,1.713,1.713,0,0,0-.768-1.564,4.118,4.118,0,0,0-2.2-.486,2.792,2.792,0,0,0-2.344.891,2.93,2.93,0,0,0-.5,1.465H20.285a3.624,3.624,0,0,1,1.506-3.229,6.183,6.183,0,0,1,3.357-.908,6.831,6.831,0,0,1,3.6.844,2.862,2.862,0,0,1,1.371,2.625v7.23a.926.926,0,0,0,.135.527.65.65,0,0,0,.568.2q.141,0,.316-.018t.375-.053V.059a5.875,5.875,0,0,1-.75.176,5.481,5.481,0,0,1-.7.035A1.735,1.735,0,0,1,28.477-.5a2.985,2.985,0,0,1-.363-1.16A5.367,5.367,0,0,1,26.262-.2,5.727,5.727,0,0,1,23.6.422,3.956,3.956,0,0,1,20.748-.639a3.523,3.523,0,0,1-1.107-2.654A3.419,3.419,0,0,1,20.73-6,5.185,5.185,0,0,1,23.59-7.184Zm14.461-4.945h2.332q-.445,1.207-1.98,5.508Q40.617-3.809,39.844-1.77A35.652,35.652,0,0,1,37.266,4.09a2.947,2.947,0,0,1-2.578,1.055A5.058,5.058,0,0,1,34,5.109a5.415,5.415,0,0,1-.592-.129V3.059a7.277,7.277,0,0,0,.8.188,3.111,3.111,0,0,0,.434.035,1.518,1.518,0,0,0,.861-.193,1.784,1.784,0,0,0,.463-.475q.059-.094.422-.961T36.914.363L32.273-12.551h2.391L38.027-2.332Z" transform="translate(147 46)"/><path d="M14.578-2.238a5.2,5.2,0,0,1-2.42,1.857A9.775,9.775,0,0,1,8.543.234a7.011,7.011,0,0,1-3.7-.979,6.519,6.519,0,0,1-2.5-2.783A9.613,9.613,0,0,1,1.43-7.711V-9.2a8.973,8.973,0,0,1,1.8-5.977A6.268,6.268,0,0,1,8.285-17.3a6.474,6.474,0,0,1,4.3,1.365,5.947,5.947,0,0,1,1.992,3.873h-2.25A3.717,3.717,0,0,0,8.3-15.445a3.984,3.984,0,0,0-3.428,1.588,7.748,7.748,0,0,0-1.178,4.6v1.395A7.262,7.262,0,0,0,5-3.3,4.256,4.256,0,0,0,8.555-1.605a7.826,7.826,0,0,0,2.215-.281,3.423,3.423,0,0,0,1.57-.949V-6.668H8.391V-8.5h6.188Zm2.836-4.219a7.489,7.489,0,0,1,.732-3.352,5.464,5.464,0,0,1,2.039-2.3,5.551,5.551,0,0,1,2.982-.809,5.347,5.347,0,0,1,4.189,1.793,6.9,6.9,0,0,1,1.6,4.77V-6.2a7.555,7.555,0,0,1-.709,3.322A5.383,5.383,0,0,1,26.221-.586a5.614,5.614,0,0,1-3.029.82,5.334,5.334,0,0,1-4.178-1.793,6.863,6.863,0,0,1-1.6-4.746Zm2.18.258a5.424,5.424,0,0,0,.979,3.387,3.132,3.132,0,0,0,2.619,1.277A3.113,3.113,0,0,0,25.816-2.83a5.932,5.932,0,0,0,.973-3.627,5.415,5.415,0,0,0-.99-3.381,3.148,3.148,0,0,0-2.631-1.295,3.113,3.113,0,0,0-2.59,1.277A5.888,5.888,0,0,0,19.594-6.2ZM31.1-6.457a7.489,7.489,0,0,1,.732-3.352,5.464,5.464,0,0,1,2.039-2.3,5.551,5.551,0,0,1,2.982-.809,5.347,5.347,0,0,1,4.189,1.793,6.9,6.9,0,0,1,1.6,4.77V-6.2a7.555,7.555,0,0,1-.709,3.322A5.383,5.383,0,0,1,39.908-.586a5.614,5.614,0,0,1-3.029.82A5.334,5.334,0,0,1,32.7-1.559,6.863,6.863,0,0,1,31.1-6.3Zm2.18.258a5.424,5.424,0,0,0,.979,3.387,3.132,3.132,0,0,0,2.619,1.277A3.113,3.113,0,0,0,39.5-2.83a5.932,5.932,0,0,0,.973-3.627,5.415,5.415,0,0,0-.99-3.381,3.148,3.148,0,0,0-2.631-1.295,3.113,3.113,0,0,0-2.59,1.277A5.888,5.888,0,0,0,33.281-6.2Zm11.566-.246a7.452,7.452,0,0,1,1.371-4.717,4.385,4.385,0,0,1,3.633-1.752,4.362,4.362,0,0,1,3.621,1.641l.105-1.406h1.98V-.3A5.158,5.158,0,0,1,54.1,3.574a5.384,5.384,0,0,1-3.92,1.418A6.521,6.521,0,0,1,47.5,4.406a4.62,4.62,0,0,1-2-1.605l1.125-1.3a4.239,4.239,0,0,0,3.41,1.723,3.322,3.322,0,0,0,2.467-.891,3.4,3.4,0,0,0,.885-2.508v-1.09a4.456,4.456,0,0,1-3.551,1.5,4.331,4.331,0,0,1-3.6-1.793A7.835,7.835,0,0,1,44.848-6.445Zm2.18.246a5.685,5.685,0,0,0,.879,3.369,2.856,2.856,0,0,0,2.461,1.225,3.176,3.176,0,0,0,3.012-1.863V-9.258a3.213,3.213,0,0,0-2.988-1.816,2.882,2.882,0,0,0-2.473,1.23A6.192,6.192,0,0,0,47.027-6.2ZM61.184,0H59.016V-18h2.168Zm8.73.234a5.54,5.54,0,0,1-4.2-1.693A6.285,6.285,0,0,1,64.1-5.988v-.4a7.609,7.609,0,0,1,.721-3.369,5.622,5.622,0,0,1,2.016-2.32,5.068,5.068,0,0,1,2.807-.838,4.749,4.749,0,0,1,3.844,1.629,7.053,7.053,0,0,1,1.371,4.664v.9H66.27a4.507,4.507,0,0,0,1.1,3.029,3.444,3.444,0,0,0,2.666,1.154A3.776,3.776,0,0,0,71.977-2a4.888,4.888,0,0,0,1.395-1.242L74.7-2.215A5.325,5.325,0,0,1,69.914.234Zm-.27-11.367a2.892,2.892,0,0,0-2.2.955A4.642,4.642,0,0,0,66.34-7.5h6.352v-.164a4.129,4.129,0,0,0-.891-2.561A2.723,2.723,0,0,0,69.645-11.133Z" transform="translate(69 46)"/><path d="M1.7,40h0A3.027,3.027,0,0,1,0,37.264V2.741A3.028,3.028,0,0,1,1.712,0l19.97,20L1.7,40Zm4.486-1.041v0L23.4,21.719l4.614,4.621ZM30.2,25.078h0L25.124,20,30.2,14.918,34.8,17.581a3.048,3.048,0,0,1,.033,4.815L30.2,25.078Zm-6.8-6.806h0L6.195,1.042l21.82,12.613L23.4,18.272Z" transform="translate(16 12)"/></svg>