<?xml version="1.0" encoding="utf-8"?>
<!-- Generator: Adobe Illustrator 26.1.0, SVG Export Plug-In . SVG Version: 6.00 Build 0)  -->
<svg version="1.1" id="Camada_1" xmlns="http://www.w3.org/2000/svg" xmlns:xlink="http://www.w3.org/1999/xlink" x="0px" y="0px"
	 viewBox="0 0 42.6 17.8" style="enable-background:new 0 0 42.6 17.8;" xml:space="preserve">
<style type="text/css">
	.st0{display:none;fill:#1E3394;}
	.st1{fill:#1E3394;}
</style>
<path class="st0" d="M0.3,8.9c0-11.6,9.4-21,21-21s21,9.4,21,21s-9.4,21-21,21S0.3,20.5,0.3,8.9z M8.2,9.6c5.5,2.5,10.1,6.8,13,12.1
	c0.8,1.5,2.8,1.9,4.2,0.8c5.2-4.1,8.9-10.1,10.1-16.8c0.3-1.5-0.3-3-1.4-4C30-2,24.8-4.6,19-5.3c-1.2-0.2-2.5,0.2-3.5,0.9
	C11.8-1.7,8.9,1.8,6.9,5.8C6.2,7.3,6.8,9,8.2,9.6z"/>
<g>
	<path class="st1" d="M0,8.9c0-4.7,3.8-8.5,8.5-8.5c4.7,0,8.5,3.8,8.5,8.5c0,4.7-3.8,8.5-8.5,8.5C3.8,17.4,0,13.6,0,8.9z M3.2,9.2
		c2.2,1,4.1,2.7,5.3,4.9c0.3,0.6,1.1,0.8,1.7,0.3c2.1-1.7,3.6-4.1,4.1-6.8C14.4,7,14.2,6.4,13.7,6C12,4.5,9.9,3.5,7.6,3.1
		c-0.5-0.1-1,0.1-1.4,0.4C4.7,4.6,3.5,6,2.7,7.7C2.4,8.3,2.6,8.9,3.2,9.2z"/>
	<path class="st1" d="M19.2,12.8V5.1c0-0.4,0.2-0.6,0.6-0.6h5c0.4,0,0.6,0.2,0.6,0.6v0.6c0,0.4-0.2,0.6-0.6,0.6h-3.3v1.8h2.4
		c0.4,0,0.6,0.2,0.6,0.6v0.5c0,0.4-0.2,0.6-0.6,0.6h-2.4v1.8h3.4c0.4,0,0.6,0.2,0.6,0.6v0.6c0,0.4-0.2,0.6-0.6,0.6h-5
		C19.4,13.4,19.2,13.1,19.2,12.8z"/>
	<path class="st1" d="M26.7,12.8V5.1c0-0.4,0.2-0.6,0.6-0.6h3C32,4.5,33,5.5,33,6.8c0,0.8-0.4,1.5-1,1.8c0.8,0.3,1.6,1.1,1.6,2.2
		c0,1.4-1.2,2.5-3,2.5h-3.3C26.9,13.4,26.7,13.1,26.7,12.8z M30.2,11.8c0.7,0,1.2-0.5,1.2-1.1c0-0.6-0.5-1.1-1.1-1.1h-1.3l0,2.2
		H30.2z M29.9,8.2c0.6,0,1-0.5,1-1c0-0.5-0.4-1.1-1-1.1h-1l0,2.1H29.9z"/>
	<path class="st1" d="M34.4,8.9c0-3,2-4.6,4.5-4.6c1.2,0,2.3,0.5,3.1,1.2c0.3,0.3,0.3,0.6,0,0.8l-0.6,0.5c-0.3,0.2-0.5,0.2-0.8,0
		c-0.4-0.4-1-0.6-1.6-0.6c-1.3,0-2.3,0.7-2.3,2.6c0,1.9,1,2.6,2.3,2.6c0.6,0,1.2-0.2,1.6-0.6c0.3-0.2,0.6-0.3,0.8,0l0.6,0.5
		c0.3,0.2,0.3,0.6,0,0.8c-0.8,0.8-1.9,1.2-3.1,1.2C36.3,13.5,34.4,11.9,34.4,8.9z"/>
</g>
</svg>
