<?xml version="1.0" encoding="utf-8"?>
<!-- Generator: Adobe Illustrator 26.1.0, SVG Export Plug-In . SVG Version: 6.00 Build 0)  -->
<svg version="1.1" id="Camada_1" xmlns="http://www.w3.org/2000/svg" xmlns:xlink="http://www.w3.org/1999/xlink" x="0px" y="0px"
	 viewBox="0 0 104.9 32.5" style="enable-background:new 0 0 104.9 32.5;" xml:space="preserve">
<style type="text/css">
	.st0{fill:#FFFFFF;}
</style>
<g>
	<g>
		<path class="st0" d="M0.2,16.2c0-7.4,5.9-13.3,13.3-13.3c7.4,0,13.3,6,13.3,13.3c0,7.4-6,13.3-13.3,13.3
			C6.1,29.5,0.2,23.6,0.2,16.2z M5.2,16.7c3.5,1.6,6.4,4.3,8.3,7.7c0.5,1,1.8,1.2,2.6,0.5c3.3-2.6,5.6-6.4,6.4-10.7
			c0.2-1-0.2-1.9-0.9-2.6c-2.6-2.4-5.9-4-9.6-4.5c-0.8-0.1-1.6,0.1-2.2,0.6c-2.3,1.7-4.2,3.9-5.5,6.5C3.9,15.2,4.3,16.3,5.2,16.7z"
			/>
		<path class="st0" d="M30.2,22.3V10.2c0-0.6,0.3-0.9,0.9-0.9h7.8c0.6,0,0.9,0.3,0.9,0.9v1c0,0.6-0.3,0.9-0.9,0.9h-5.2v2.8h3.8
			c0.6,0,0.9,0.3,0.9,0.9v0.8c0,0.6-0.3,0.9-0.9,0.9h-3.8v2.8h5.2c0.6,0,0.9,0.3,0.9,0.9v1c0,0.6-0.3,0.9-0.9,0.9h-7.8
			C30.5,23.2,30.2,22.8,30.2,22.3z"/>
		<path class="st0" d="M41.9,22.3V10.2c0-0.6,0.3-0.9,0.9-0.9h4.7c2.6,0,4.3,1.7,4.3,3.7c0,1.2-0.6,2.4-1.6,2.9
			c1.2,0.5,2.4,1.7,2.4,3.5c0,2.2-1.9,3.8-4.7,3.8h-5.1C42.3,23.2,41.9,22.8,41.9,22.3z M47.4,20.7c1.2,0,1.8-0.8,1.8-1.7
			c0-0.9-0.7-1.7-1.8-1.7h-2l0,3.4H47.4z M47,15.1c1,0,1.6-0.8,1.6-1.6c0-0.9-0.6-1.7-1.6-1.7h-1.6l0,3.3H47z"/>
		<path class="st0" d="M54,16.2c0-4.7,3.1-7.2,7.1-7.2C63,9,64.7,9.7,66,11c0.4,0.4,0.4,0.9,0,1.3l-1,0.9c-0.4,0.4-0.9,0.4-1.3,0
			c-0.7-0.6-1.6-0.9-2.5-0.9c-2,0-3.5,1.1-3.5,4.1c0,2.9,1.6,4.1,3.5,4.1c1,0,1.9-0.4,2.5-0.9c0.5-0.4,0.9-0.4,1.3,0l1,0.9
			c0.4,0.4,0.4,0.9,0,1.3c-1.2,1.2-2.9,1.9-4.9,1.9C57.1,23.4,54,20.9,54,16.2z"/>
	</g>
	<g>
		<path class="st0" d="M72.6,15.2v-2.4c0-0.1,0.1-0.2,0.2-0.2h1.5c0.1,0,0.2,0.1,0.2,0.1V13c0,0.1-0.1,0.2-0.2,0.2h-1.1v0.7H74
			c0.1,0,0.2,0.1,0.2,0.1v0.1c0,0.1-0.1,0.2-0.2,0.2h-0.8V15h1.1c0.1,0,0.2,0.1,0.2,0.1v0.1c0,0.1-0.1,0.2-0.2,0.2h-1.5
			C72.7,15.4,72.6,15.3,72.6,15.2z"/>
		<path class="st0" d="M76.1,15.3l-0.6-1.6l-0.2,1.6c0,0.1-0.1,0.2-0.2,0.2H75c-0.1,0-0.1-0.1-0.1-0.2l0.3-2.5
			c0-0.1,0.1-0.1,0.2-0.1h0c0.1,0,0.1,0,0.2,0.1l0.8,1.9l0.8-1.9c0-0.1,0.1-0.1,0.2-0.1h0c0.1,0,0.1,0,0.2,0.1l0.3,2.5
			c0,0.1,0,0.2-0.1,0.2h-0.2c-0.1,0-0.1-0.1-0.2-0.2l-0.2-1.6l-0.6,1.6c0,0.1-0.1,0.1-0.2,0.1h0C76.2,15.4,76.1,15.4,76.1,15.3z"/>
		<path class="st0" d="M78.2,15.2v-2.4c0-0.1,0.1-0.2,0.2-0.2h0.9c0.6,0,1,0.3,1,0.8c0,0.5-0.3,0.8-1,0.8h-0.5v0.9
			c0,0.1-0.1,0.2-0.1,0.2h-0.2C78.3,15.4,78.2,15.3,78.2,15.2z M79.3,13.9c0.2,0,0.4-0.2,0.4-0.4c0-0.3-0.2-0.4-0.4-0.4h-0.6v0.8
			H79.3z"/>
		<path class="st0" d="M80.6,15.2v-2.4c0-0.1,0.1-0.2,0.2-0.2h0.9c0.6,0,1,0.4,1,0.8c0,0.4-0.2,0.7-0.5,0.8l0.5,1
			c0.1,0.1,0,0.2-0.1,0.2h-0.3c-0.1,0-0.1,0-0.2-0.1l-0.5-0.9h-0.4v0.9c0,0.1-0.1,0.2-0.1,0.2h-0.2C80.7,15.4,80.6,15.3,80.6,15.2z
			 M81.7,14c0.2,0,0.4-0.2,0.4-0.4c0-0.2-0.2-0.4-0.4-0.4h-0.6V14H81.7z"/>
		<path class="st0" d="M83.1,15.2v-2.4c0-0.1,0.1-0.2,0.2-0.2h1.5c0.1,0,0.2,0.1,0.2,0.1V13c0,0.1-0.1,0.2-0.2,0.2h-1.1v0.7h0.8
			c0.1,0,0.2,0.1,0.2,0.1v0.1c0,0.1-0.1,0.2-0.2,0.2h-0.8V15h1.1c0.1,0,0.2,0.1,0.2,0.1v0.1c0,0.1-0.1,0.2-0.2,0.2h-1.5
			C83.2,15.4,83.1,15.3,83.1,15.2z"/>
		<path class="st0" d="M85.3,15.1c-0.1-0.1-0.1-0.1,0-0.2l0.1-0.1c0.1-0.1,0.1-0.1,0.2,0c0.2,0.2,0.4,0.3,0.7,0.3
			c0.3,0,0.5-0.1,0.5-0.3c0-0.3-0.3-0.4-0.6-0.5c-0.3-0.1-0.7-0.3-0.7-0.8c0-0.4,0.4-0.8,0.9-0.8c0.4,0,0.6,0.1,0.8,0.3
			c0.1,0.1,0.1,0.1,0,0.2l-0.1,0.1c-0.1,0.1-0.1,0.1-0.2,0c-0.1-0.1-0.3-0.2-0.5-0.2c-0.2,0-0.4,0.1-0.4,0.3c0,0.2,0.2,0.3,0.4,0.4
			c0.4,0.1,0.9,0.4,0.9,0.9c0,0.5-0.4,0.8-1,0.8C85.9,15.4,85.6,15.3,85.3,15.1z"/>
		<path class="st0" d="M87.5,15.2l1.1-2.5c0-0.1,0.1-0.1,0.2-0.1h0c0.1,0,0.2,0.1,0.2,0.1l1.1,2.5c0,0.1,0,0.2-0.1,0.2h-0.3
			c-0.1,0-0.1-0.1-0.2-0.2l-0.1-0.4h-1.2L88,15.2c0,0.1-0.1,0.2-0.2,0.2h-0.3C87.5,15.4,87.5,15.3,87.5,15.2z M89.2,14.5l-0.4-1.1
			l-0.4,1.1H89.2z"/>
		<path class="st0" d="M91.5,15.2v-2.4c0-0.1,0.1-0.2,0.2-0.2h0.8c0.5,0,0.8,0.3,0.8,0.7c0,0.2-0.1,0.5-0.3,0.6
			c0.3,0.1,0.5,0.3,0.5,0.7c0,0.4-0.4,0.7-0.9,0.7h-0.9C91.5,15.4,91.5,15.3,91.5,15.2z M92.5,15c0.3,0,0.5-0.2,0.5-0.4
			c0-0.2-0.2-0.4-0.4-0.4H92V15H92.5z M92.4,13.8c0.2,0,0.4-0.2,0.4-0.4s-0.1-0.4-0.4-0.4H92v0.8H92.4z"/>
		<path class="st0" d="M94,15.2v-2.4c0-0.1,0.1-0.2,0.2-0.2H95c0.6,0,1,0.4,1,0.8c0,0.4-0.2,0.7-0.5,0.8l0.5,1
			c0.1,0.1,0,0.2-0.1,0.2h-0.3c-0.1,0-0.1,0-0.2-0.1l-0.5-0.9h-0.4v0.9c0,0.1-0.1,0.2-0.1,0.2h-0.2C94,15.4,94,15.3,94,15.2z M95,14
			c0.2,0,0.4-0.2,0.4-0.4c0-0.2-0.2-0.4-0.4-0.4h-0.6V14H95z"/>
		<path class="st0" d="M96.3,15.2l1.1-2.5c0-0.1,0.1-0.1,0.2-0.1h0c0.1,0,0.2,0.1,0.2,0.1l1.1,2.5c0,0.1,0,0.2-0.1,0.2h-0.3
			c-0.1,0-0.1-0.1-0.2-0.2l-0.1-0.4H97l-0.1,0.4c0,0.1-0.1,0.2-0.2,0.2h-0.3C96.3,15.4,96.2,15.3,96.3,15.2z M98,14.5l-0.4-1.1
			l-0.4,1.1H98z"/>
		<path class="st0" d="M99.1,15.1c-0.1-0.1-0.1-0.1,0-0.2l0.1-0.1c0.1-0.1,0.1-0.1,0.2,0c0.2,0.2,0.4,0.3,0.7,0.3
			c0.3,0,0.5-0.1,0.5-0.3c0-0.3-0.3-0.4-0.6-0.5c-0.3-0.1-0.7-0.3-0.7-0.8c0-0.4,0.4-0.8,0.9-0.8c0.4,0,0.6,0.1,0.8,0.3
			c0.1,0.1,0.1,0.1,0,0.2l-0.1,0.1c-0.1,0.1-0.1,0.1-0.2,0c-0.1-0.1-0.3-0.2-0.5-0.2c-0.2,0-0.4,0.1-0.4,0.3c0,0.2,0.2,0.3,0.4,0.4
			c0.4,0.1,0.9,0.4,0.9,0.9c0,0.5-0.4,0.8-1,0.8C99.7,15.4,99.3,15.3,99.1,15.1z"/>
		<path class="st0" d="M101.6,15.2v-2.4c0-0.1,0.1-0.2,0.2-0.2h0.2c0.1,0,0.1,0.1,0.1,0.2v2.4c0,0.1-0.1,0.2-0.1,0.2h-0.2
			C101.6,15.4,101.6,15.3,101.6,15.2z"/>
		<path class="st0" d="M102.7,15.2v-2.4c0-0.1,0.1-0.2,0.2-0.2h0.2c0.1,0,0.1,0.1,0.1,0.2V15h1c0.1,0,0.2,0.1,0.2,0.1v0.1
			c0,0.1-0.1,0.2-0.2,0.2h-1.3C102.8,15.4,102.7,15.3,102.7,15.2z"/>
		<path class="st0" d="M72.6,19.7v-2.2c0-0.1,0.1-0.1,0.1-0.1h0.8c0.7,0,1.2,0.6,1.2,1.3c0,0.7-0.5,1.3-1.2,1.3h-0.8
			C72.7,19.8,72.6,19.7,72.6,19.7z M73.6,19.4c0.4,0,0.7-0.4,0.7-0.9c0-0.5-0.3-0.9-0.7-0.9h-0.5v1.7H73.6z"/>
		<path class="st0" d="M75.3,19.7v-2.2c0-0.1,0.1-0.1,0.1-0.1h1.4c0.1,0,0.1,0,0.1,0.1v0.1c0,0.1-0.1,0.1-0.1,0.1h-1v0.7h0.8
			c0.1,0,0.1,0,0.1,0.1v0.1c0,0.1-0.1,0.1-0.1,0.1h-0.8v0.7h1c0.1,0,0.1,0,0.1,0.1v0.1c0,0.1-0.1,0.1-0.1,0.1h-1.4
			C75.3,19.8,75.3,19.7,75.3,19.7z"/>
		<path class="st0" d="M78.1,18.5c0-0.8,0.5-1.3,1.3-1.3c0.4,0,0.7,0.1,0.9,0.4c0.1,0.1,0.1,0.1,0,0.2l-0.1,0.1
			c-0.1,0.1-0.1,0-0.2,0c-0.1-0.1-0.3-0.2-0.6-0.2c-0.4,0-0.8,0.3-0.8,0.9c0,0.6,0.3,0.9,0.8,0.9c0.2,0,0.4-0.1,0.6-0.2
			c0.1-0.1,0.1-0.1,0.2,0l0.1,0.1c0.1,0.1,0.1,0.1,0,0.2c-0.2,0.2-0.5,0.4-0.9,0.4C78.6,19.8,78.1,19.4,78.1,18.5z"/>
		<path class="st0" d="M80.5,18.5c0-0.8,0.5-1.3,1.3-1.3c0.7,0,1.3,0.5,1.3,1.3c0,0.8-0.5,1.3-1.3,1.3C81,19.8,80.5,19.4,80.5,18.5z
			 M81.7,19.4c0.4,0,0.8-0.3,0.8-0.9c0-0.6-0.3-0.9-0.8-0.9S81,17.9,81,18.5C81,19.1,81.3,19.4,81.7,19.4z"/>
		<path class="st0" d="M84.5,19.7l-0.5-1.5l-0.2,1.4c0,0.1-0.1,0.1-0.1,0.1h-0.2c-0.1,0-0.1-0.1-0.1-0.1l0.3-2.3
			c0-0.1,0.1-0.1,0.1-0.1h0c0.1,0,0.1,0,0.2,0.1l0.7,1.8l0.7-1.8c0-0.1,0.1-0.1,0.2-0.1h0c0.1,0,0.1,0,0.1,0.1l0.3,2.3
			c0,0.1,0,0.1-0.1,0.1h-0.2c-0.1,0-0.1-0.1-0.1-0.1l-0.2-1.4l-0.5,1.5c0,0.1-0.1,0.1-0.2,0.1h0C84.5,19.8,84.5,19.8,84.5,19.7z"/>
		<path class="st0" d="M86.3,18.8v-1.4c0-0.1,0.1-0.1,0.1-0.1h0.2c0.1,0,0.1,0.1,0.1,0.1v1.4c0,0.4,0.2,0.6,0.6,0.6
			c0.3,0,0.6-0.2,0.6-0.6v-1.4c0-0.1,0.1-0.1,0.1-0.1h0.2c0.1,0,0.1,0.1,0.1,0.1v1.4c0,0.6-0.4,1-1,1C86.8,19.8,86.3,19.4,86.3,18.8
			z"/>
		<path class="st0" d="M90.6,19.7l-1.2-1.6v1.5c0,0.1,0,0.1-0.1,0.1h-0.2c-0.1,0-0.1-0.1-0.1-0.1v-2.2c0-0.1,0.1-0.2,0.2-0.2h0
			c0.1,0,0.1,0,0.2,0.1l1.2,1.6v-1.5c0-0.1,0-0.1,0.1-0.1h0.2c0.1,0,0.1,0.1,0.1,0.1v2.2c0,0.1-0.1,0.2-0.2,0.2h0
			C90.8,19.8,90.7,19.8,90.6,19.7z"/>
		<path class="st0" d="M91.6,19.7v-2.2c0-0.1,0.1-0.1,0.1-0.1h0.2c0.1,0,0.1,0.1,0.1,0.1v2.2c0,0.1,0,0.1-0.1,0.1h-0.2
			C91.6,19.8,91.6,19.7,91.6,19.7z"/>
		<path class="st0" d="M92.5,18.5c0-0.8,0.5-1.3,1.3-1.3c0.4,0,0.7,0.1,0.9,0.4c0.1,0.1,0.1,0.1,0,0.2l-0.1,0.1
			c-0.1,0.1-0.1,0-0.2,0c-0.1-0.1-0.3-0.2-0.6-0.2c-0.4,0-0.8,0.3-0.8,0.9c0,0.6,0.3,0.9,0.8,0.9c0.2,0,0.4-0.1,0.6-0.2
			c0.1-0.1,0.1-0.1,0.2,0l0.1,0.1c0.1,0.1,0.1,0.1,0,0.2c-0.2,0.2-0.5,0.4-0.9,0.4C93,19.8,92.5,19.4,92.5,18.5z"/>
		<path class="st0" d="M94.9,19.7l1-2.3c0-0.1,0.1-0.1,0.2-0.1h0c0.1,0,0.1,0,0.2,0.1l1,2.3c0,0.1,0,0.1-0.1,0.1h-0.3
			c-0.1,0-0.1,0-0.1-0.1l-0.1-0.3h-1.1l-0.1,0.3c0,0.1-0.1,0.1-0.1,0.1H95C94.9,19.8,94.8,19.8,94.9,19.7z M96.4,19l-0.4-1l-0.4,1
			H96.4z"/>
		<path class="st0" d="M98.2,20.6c-0.1,0-0.1-0.1-0.1-0.2l0,0c0.1-0.1,0.1-0.1,0.2,0c0.1,0,0.2,0.1,0.3,0.1c0.1,0,0.2-0.1,0.2-0.2
			c0-0.1-0.2-0.2-0.4-0.2c-0.1,0-0.1,0-0.1-0.1c0-0.1,0.1-0.2,0.1-0.3c-0.6-0.1-1.1-0.5-1.1-1.3c0-0.8,0.5-1.3,1.3-1.3
			c0.4,0,0.7,0.1,0.9,0.4c0.1,0.1,0.1,0.1,0,0.2l-0.1,0.1c-0.1,0.1-0.1,0-0.2,0c-0.1-0.1-0.3-0.2-0.6-0.2c-0.4,0-0.8,0.3-0.8,0.9
			c0,0.6,0.3,0.9,0.8,0.9c0.2,0,0.4-0.1,0.6-0.2c0.1-0.1,0.1-0.1,0.2,0l0.1,0.1c0.1,0.1,0.1,0.1,0,0.2c-0.2,0.2-0.5,0.3-0.8,0.4
			l0,0.1c0.3,0,0.5,0.1,0.5,0.4c0,0.3-0.2,0.4-0.5,0.4C98.5,20.7,98.3,20.7,98.2,20.6z"/>
		<path class="st0" d="M99.7,19.7l1-2.3c0-0.1,0.1-0.1,0.2-0.1h0c0.1,0,0.1,0,0.2,0.1l1,2.3c0,0.1,0,0.1-0.1,0.1h-0.3
			c-0.1,0-0.1,0-0.1-0.1l-0.1-0.3h-1.1l-0.1,0.3c0,0.1-0.1,0.1-0.1,0.1h-0.3C99.7,19.8,99.7,19.8,99.7,19.7z M100.6,16.5
			c0.3,0,0.4,0.2,0.6,0.2c0.1,0,0.1,0,0.1-0.1c0-0.1,0-0.1,0.1-0.1h0.1c0.1,0,0.1,0,0.1,0.1c0,0.3-0.2,0.5-0.4,0.5
			c-0.3,0-0.4-0.2-0.6-0.2c-0.1,0-0.1,0-0.1,0.1c0,0.1,0,0.1-0.1,0.1h-0.1c-0.1,0-0.1,0-0.1-0.1C100.2,16.6,100.4,16.5,100.6,16.5z
			 M101.3,19l-0.4-1l-0.4,1H101.3z"/>
		<path class="st0" d="M102.2,18.5c0-0.8,0.5-1.3,1.3-1.3c0.7,0,1.3,0.5,1.3,1.3c0,0.8-0.5,1.3-1.3,1.3
			C102.7,19.8,102.2,19.4,102.2,18.5z M103.4,19.4c0.4,0,0.8-0.3,0.8-0.9c0-0.6-0.3-0.9-0.8-0.9s-0.8,0.3-0.8,0.9
			C102.7,19.1,103,19.4,103.4,19.4z"/>
	</g>
	<g>
		<rect x="69" y="9.2" class="st0" width="0.4" height="13.9"/>
	</g>
</g>
</svg>
