<?xml version="1.0" encoding="utf-8"?>
<!-- Generator: Adobe Illustrator 26.1.0, SVG Export Plug-In . SVG Version: 6.00 Build 0)  -->
<svg version="1.1" id="Camada_1" xmlns="http://www.w3.org/2000/svg" xmlns:xlink="http://www.w3.org/1999/xlink" x="0px" y="0px"
	 viewBox="0 0 42.6 44" style="enable-background:new 0 0 42.6 44;" xml:space="preserve">
<style type="text/css">
	.st0{fill:#1E3394;}
</style>
<path class="st0" d="M0.3,22c0-11.6,9.4-21,21-21s21,9.4,21,21s-9.4,21-21,21S0.3,33.6,0.3,22z M8.2,22.7c5.5,2.5,10.1,6.8,13,12.1
	c0.8,1.5,2.8,1.9,4.2,0.8c5.2-4.1,8.9-10.1,10.1-16.8c0.3-1.5-0.3-3-1.4-4c-4.1-3.7-9.3-6.3-15.1-7c-1.2-0.2-2.5,0.2-3.5,0.9
	c-3.7,2.7-6.6,6.2-8.6,10.2C6.2,20.4,6.8,22.1,8.2,22.7z"/>
</svg>
